<?xml version="1.0" encoding="UTF-8" standalone="no"?>
<svg
   width="75"
   height="380"
   viewBox="0 0 75 380"
   version="1.1"
   id="svg208"
   sodipodi:docname="DelayProto.svg"
   inkscape:version="1.3.2 (091e20e, 2023-11-25)"
   xmlns:inkscape="http://www.inkscape.org/namespaces/inkscape"
   xmlns:sodipodi="http://sodipodi.sourceforge.net/DTD/sodipodi-0.dtd"
   xmlns="http://www.w3.org/2000/svg"
   xmlns:svg="http://www.w3.org/2000/svg"
   xmlns:rdf="http://www.w3.org/1999/02/22-rdf-syntax-ns#"
   xmlns:cc="http://creativecommons.org/ns#"
   xmlns:dc="http://purl.org/dc/elements/1.1/">
  <metadata
     id="metadata212">
    <rdf:RDF>
      <cc:Work
         rdf:about="">
        <dc:format>image/svg+xml</dc:format>
        <dc:type
           rdf:resource="http://purl.org/dc/dcmitype/StillImage" />
      </cc:Work>
    </rdf:RDF>
  </metadata>
  <sodipodi:namedview
     pagecolor="#ffffff"
     bordercolor="#666666"
     borderopacity="1"
     objecttolerance="10"
     gridtolerance="10"
     guidetolerance="10"
     inkscape:pageopacity="0"
     inkscape:pageshadow="2"
     inkscape:window-width="1920"
     inkscape:window-height="1016"
     id="namedview210"
     showgrid="false"
     inkscape:zoom="1.4182101"
     inkscape:cx="36.665934"
     inkscape:cy="268.64848"
     inkscape:window-x="0"
     inkscape:window-y="0"
     inkscape:window-maximized="1"
     inkscape:current-layer="layer2"
     inkscape:showpageshadow="2"
     inkscape:pagecheckerboard="0"
     inkscape:deskcolor="#d1d1d1" />
  <defs
     id="defs9">
    <style
       id="style2">
      .uuid-57bd1e2f-1786-4de8-823b-ead3c33ca89d {
        fill: #f0f0f0;
      }

      .uuid-0d49eaf3-e062-44db-80d5-51dbf76d1da0 {
        fill: blue;
      }

      .uuid-3cfc38ff-2762-4c45-bd9f-cf67325cf3c5 {
        fill: url(#uuid-e30a21f0-2d63-431c-8b15-71b8c9c78a0d);
      }

      .uuid-5445a45f-1674-4ba4-a43a-40d2e914e5a1 {
        fill: lime;
      }

      .uuid-77cec769-671e-4e16-912b-cee9a444b8ed {
        isolation: isolate;
        opacity: .69;
      }

      .uuid-77cec769-671e-4e16-912b-cee9a444b8ed, .uuid-f33a7b67-4b50-4cb9-8b69-5eb147f414e4, .uuid-5065ae39-88db-4c7c-930f-80dfe709af08 {
        fill: none;
      }

      .uuid-5065ae39-88db-4c7c-930f-80dfe709af08 {
        stroke: #1f1f1f;
        stroke-linecap: round;
        stroke-miterlimit: 10;
        stroke-width: .8px;
      }

      .uuid-e6d611bb-6d98-4b98-9e18-aec52819f4ad {
        fill: #1f1f1f;
      }

      .uuid-69802020-82b3-43e9-b071-1f4fd6734a4c {
        fill: red;
      }
    </style>
    <linearGradient
       id="uuid-e30a21f0-2d63-431c-8b15-71b8c9c78a0d"
       x1="37.5"
       y1="0"
       x2="37.5"
       y2="380"
       gradientTransform="matrix(1, 0, 0, 1, 0, 0)"
       gradientUnits="userSpaceOnUse">
      <stop
         offset="0"
         stop-color="#ebebeb"
         id="stop4"
         style="stop-color:#ebeb38;stop-opacity:1;" />
      <stop
         offset="1"
         stop-color="#e1e1e1"
         id="stop6" />
    </linearGradient>
  </defs>
  <g
     inkscape:groupmode="layer"
     id="layer1"
     inkscape:label="Text_Original"
     style="display:none">
    <text
       xml:space="preserve"
       style="font-size:10.6667px;fill:#000000;fill-opacity:1;stroke:none;stroke-opacity:1"
       x="46.780296"
       y="318.96381"
       id="text1-2"
       inkscape:label="Out"><tspan
         sodipodi:role="line"
         x="46.780296"
         y="318.96381"
         style="font-style:normal;font-variant:normal;font-weight:normal;font-stretch:normal;font-size:10.6667px;font-family:Dhurjati;-inkscape-font-specification:Dhurjati;fill:#ffffff;fill-opacity:1"
         id="tspan2-6">OUT</tspan></text>
    <text
       xml:space="preserve"
       style="font-size:10.6667px;fill:#000027;fill-opacity:1;stroke:none;stroke-opacity:1"
       x="17.49548"
       y="318.95984"
       id="text1"
       inkscape:label="In"><tspan
         sodipodi:role="line"
         x="17.49548"
         y="318.95984"
         style="font-style:normal;font-variant:normal;font-weight:normal;font-stretch:normal;font-size:10.6667px;font-family:Dhurjati;-inkscape-font-specification:Dhurjati;fill:#000027;fill-opacity:1"
         id="tspan2">IN</tspan></text>
    <text
       xml:space="preserve"
       style="font-size:10.6667px;fill:#000000;fill-opacity:1;stroke:none;stroke-opacity:1"
       x="13.587817"
       y="274.13718"
       id="text1-1"
       inkscape:label="Time"><tspan
         sodipodi:role="line"
         x="13.587817"
         y="274.13718"
         style="font-style:normal;font-variant:normal;font-weight:normal;font-stretch:normal;font-size:10.6667px;font-family:Dhurjati;-inkscape-font-specification:Dhurjati;fill:#000000;fill-opacity:1"
         id="tspan2-8">TIME</tspan></text>
    <text
       xml:space="preserve"
       style="font-size:10.6667px;fill:#000000;fill-opacity:1;stroke:none;stroke-opacity:1"
       x="46.01004"
       y="274.14114"
       id="text1-2-7"
       inkscape:label="F/B"><tspan
         sodipodi:role="line"
         x="46.01004"
         y="274.14114"
         style="font-style:normal;font-variant:normal;font-weight:normal;font-stretch:normal;font-size:10.6667px;font-family:Dhurjati;-inkscape-font-specification:Dhurjati;fill:#000000;fill-opacity:1"
         id="tspan2-6-9">F/B</tspan></text>
    <text
       xml:space="preserve"
       style="font-size:10.6667px;fill:#000000;fill-opacity:1;stroke:none;stroke-opacity:1"
       x="45.226055"
       y="229.69427"
       id="text1-2-7-2"
       inkscape:label="LED"><tspan
         sodipodi:role="line"
         x="45.226055"
         y="229.69427"
         style="font-style:normal;font-variant:normal;font-weight:normal;font-stretch:normal;font-size:10.6667px;font-family:Dhurjati;-inkscape-font-specification:Dhurjati;fill:#000000;fill-opacity:1"
         id="tspan2-6-9-3">LED</tspan></text>
    <text
       xml:space="preserve"
       style="font-size:10.6667px;fill:#000000;fill-opacity:1;stroke:none;stroke-opacity:1"
       x="12.803831"
       y="229.69031"
       id="text1-1-2"
       inkscape:label="S/L"><tspan
         sodipodi:role="line"
         x="12.803831"
         y="229.69031"
         style="font-style:normal;font-variant:normal;font-weight:normal;font-stretch:normal;font-size:10.6667px;font-family:Dhurjati;-inkscape-font-specification:Dhurjati;fill:#000000;fill-opacity:1"
         id="tspan2-8-0">S/L</tspan></text>
    <text
       xml:space="preserve"
       style="font-size:13.3333px;fill:#000000;fill-opacity:1;stroke:none;stroke-opacity:1"
       x="11.463461"
       y="51.28833"
       id="text1-1-2-7"
       inkscape:label="Delay Time"><tspan
         sodipodi:role="line"
         x="11.463461"
         y="51.28833"
         style="font-style:normal;font-variant:normal;font-weight:normal;font-stretch:normal;font-size:13.3333px;font-family:Dhurjati;-inkscape-font-specification:Dhurjati;fill:#000000;fill-opacity:1"
         id="tspan2-8-0-5">DELAY TIME</tspan></text>
    <text
       xml:space="preserve"
       style="font-size:13.3333px;fill:#000000;fill-opacity:1;stroke:none;stroke-opacity:1"
       x="15.29393"
       y="111.42144"
       id="text1-1-2-7-0"
       inkscape:label="Feedback"><tspan
         sodipodi:role="line"
         x="15.29393"
         y="111.42144"
         style="font-style:normal;font-variant:normal;font-weight:normal;font-stretch:normal;font-size:13.3333px;font-family:Dhurjati;-inkscape-font-specification:Dhurjati;fill:#000000;fill-opacity:1"
         id="tspan2-8-0-5-3">FEEDBACK</tspan></text>
    <text
       xml:space="preserve"
       style="font-size:13.3333px;fill:#000000;fill-opacity:1;stroke:none;stroke-opacity:1"
       x="2.21806"
       y="27.849491"
       id="text1-1-2-7-9"
       inkscape:label="Daisy.Delay"><tspan
         sodipodi:role="line"
         x="2.21806"
         y="27.849491"
         style="font-style:normal;font-variant:normal;font-weight:normal;font-stretch:normal;font-size:13.3333px;font-family:Ramabhadra;-inkscape-font-specification:Ramabhadra;fill:#000000;fill-opacity:1"
         id="tspan2-8-0-5-2">DAISY.DELAY</tspan></text>
  </g>
  <g
     id="uuid-092f7e42-380c-4be1-a5b4-aed15c4995b7"
     data-name="components"
     style="display:none"
     inkscape:groupmode="layer"
     inkscape:label="Components">
    <circle
       id="uuid-71a3810e-8eaf-45c3-9faf-24bae9aef87b"
       data-name="Gate#PJ301MPort"
       cx="53.509659"
       cy="199.3996"
       r="5"
       style="fill:#00ff00" />
    <circle
       id="uuid-ce067402-6038-492b-8c7d-74aa5beeb2af"
       data-name="In#PJ301MPort"
       cx="21.545441"
       cy="199.39957"
       r="5"
       style="fill:#00ff00" />
    <circle
       id="uuid-fb7f1d99-7275-42ff-b555-9355448e32f3"
       data-name="SH1#PJ301MPort"
       cx="21.545441"
       cy="244.28706"
       r="5"
       style="fill:#0000ff" />
    <circle
       id="uuid-903757b6-23ef-4942-84bf-9f97e38dfca1"
       data-name="SH2#PJ301MPort"
       cx="53.54557"
       cy="244.28706"
       r="5"
       style="fill:#0000ff" />
    <circle
       id="uuid-958e7a9f-319c-4641-ade7-098d593dd00e"
       data-name="TH#PJ301MPort"
       cx="21.545441"
       cy="289.2471"
       r="5"
       style="fill:#0000ff" />
    <circle
       id="uuid-26077e24-c699-4aa5-a220-eb805a3cc52c"
       data-name="HT#PJ301MPort"
       cx="53.54557"
       cy="289.14182"
       r="5"
       style="fill:#0000ff" />
    <circle
       id="uuid-4266c3b2-5596-4fdd-bfe3-4f8d2f98d7db"
       data-name="Slew#PJ301MPort"
       cx="21.545441"
       cy="334"
       r="5"
       style="fill:#0000ff" />
    <circle
       id="uuid-1d0351ea-df18-4b0a-9ec0-ad70be17c990"
       data-name="Glide#PJ301MPort"
       cx="53.54557"
       cy="334"
       r="5"
       style="fill:#0000ff" />
    <circle
       id="uuid-b15e7dd6-ec30-4b00-939b-8aadf1b61540"
       data-name="Slew#RoundLargeBlackKnob"
       cx="37.33955"
       cy="78.999962"
       r="5"
       style="fill:#ff0000" />
    <circle
       id="circle3"
       data-name="Slew#RoundLargeBlackKnob"
       cx="37.33955"
       cy="138.99997"
       r="5"
       style="fill:#ff0000" />
  </g>
  <g
     inkscape:groupmode="layer"
     id="layer2"
     inkscape:label="Graphics">
    <rect
       width="75"
       height="380"
       style="display:inline;fill:url(#uuid-e30a21f0-2d63-431c-8b15-71b8c9c78a0d)"
       id="rect11"
       x="0"
       y="0"
       inkscape:label="Panel" />
    <rect
       x="39.224289"
       y="309.05634"
       width="28.55155"
       height="39.15691"
       rx="2.83465"
       ry="2.83465"
       style="display:inline;fill:#1f1f1f"
       id="rect46"
       inkscape:label="Out-Panel" />
    <path
       d="m 48.29822,185.10256 c 6.2955,-3.78272 10.15833,-10.61025 10.15833,-17.95479 0,-11.491 -9.45566,-20.94666 -20.94666,-20.94666 -11.491,0 -20.94666,9.45566 -20.94666,20.94666 0,7.39639 3.91756,14.2646 10.28394,18.02967"
       style="display:inline;fill:none;stroke:#1f1f1f;stroke-width:0.8px;stroke-linecap:round;stroke-miterlimit:10"
       id="path4"
       inkscape:label="Feedback-Circle" />
    <path
       d="m 48.29822,97.10256 c 6.2955,-3.78272 10.15833,-10.61025 10.15833,-17.95479 0,-11.491 -9.45566,-20.94666 -20.94666,-20.94666 -11.491,0 -20.94666,9.45566 -20.94666,20.94666 0,7.39639 3.91756,14.2646 10.28394,18.02967"
       style="display:inline;fill:none;stroke:#1f1f1f;stroke-width:0.8px;stroke-linecap:round;stroke-miterlimit:10"
       id="path64"
       inkscape:label="DelayTime-Circle" />
  </g>
  <g
     inkscape:groupmode="layer"
     id="g14"
     inkscape:label="Text_Paths">
    <path
       style="font-size:10.6667px;font-family:Dhurjati;-inkscape-font-specification:Dhurjati;fill:#ffffff"
       d="m 47.172635,314.74617 q 0,-0.22069 0.122605,-0.39234 0.122606,-0.17165 0.318775,-0.28199 0.19617,-0.12261 0.453642,-0.18391 0.269732,-0.0613 0.551726,-0.0613 h 1.005367 q 0.281993,0 0.539465,0.0613 0.269733,0.0613 0.465902,0.18391 0.196169,0.11034 0.318775,0.28199 0.122606,0.17165 0.122606,0.39234 v 3.29809 q 0,0.22069 -0.122606,0.39234 -0.122606,0.17165 -0.318775,0.29426 -0.196169,0.11034 -0.465902,0.17164 -0.257472,0.0613 -0.539465,0.0613 h -1.005367 q -0.281994,0 -0.551726,-0.0613 -0.257472,-0.0613 -0.453642,-0.17164 -0.196169,-0.12261 -0.318775,-0.29426 -0.122605,-0.17165 -0.122605,-0.39234 z m 2.709587,0.11034 q 0,-0.17164 -0.134866,-0.25747 -0.122606,-0.0858 -0.355557,-0.0858 h -0.539465 q -0.232951,0 -0.367818,0.0858 -0.134866,0.0858 -0.134866,0.25747 v 3.07741 q 0,0.17165 0.134866,0.25747 0.134867,0.0858 0.367818,0.0858 h 0.539465 q 0.232951,0 0.355557,-0.0858 0.134866,-0.0858 0.134866,-0.25747 z m 2.182366,-1.02988 h 1.177015 v 4.10729 q 0,0.17165 0.134866,0.25747 0.134867,0.0858 0.367818,0.0858 h 0.539465 q 0.232951,0 0.355557,-0.0858 0.134866,-0.0858 0.134866,-0.25747 v -4.10729 h 1.189276 v 4.21763 q 0,0.22069 -0.122606,0.39234 -0.122606,0.17165 -0.318775,0.29426 -0.196169,0.11034 -0.465902,0.17164 -0.257472,0.0613 -0.539465,0.0613 h -1.005367 q -0.281994,0 -0.551726,-0.0613 -0.257472,-0.0613 -0.453641,-0.17164 -0.19617,-0.12261 -0.318775,-0.29426 -0.122606,-0.17165 -0.122606,-0.39234 z m 8.61917,0.68659 h -1.397705 v 4.45059 h -1.189276 v -4.45059 h -1.397706 v -0.68659 h 3.984687 z"
       id="text6"
       inkscape:label="Out"
       aria-label="OUT" />
    <path
       style="font-size:10.6667px;font-family:Dhurjati;-inkscape-font-specification:Dhurjati;fill:#000027"
       d="m 17.985903,318.95984 v -5.13718 h 1.177015 v 5.13718 z m 2.096543,0 v -5.13718 h 1.213797 l 1.839086,3.13871 v -3.12645 h 1.189276 v 5.12492 h -1.238318 l -1.826826,-3.08967 v 3.08967 z"
       id="text7"
       inkscape:label="In"
       aria-label="IN" />
    <path
       style="font-size:10.6667px;font-family:Dhurjati;-inkscape-font-specification:Dhurjati"
       d="m 17.768673,265.68659 h -1.397705 v 4.45059 h -1.189276 v -4.45059 H 13.783986 V 265 h 3.984687 z m 0.711111,4.45059 V 265 h 1.177015 v 5.13718 z m 2.096543,0 V 265 h 1.213797 l 1.459008,3.05288 L 24.720401,265 h 1.201537 v 5.13718 h -1.189276 v -2.61151 l -0.85824,1.80231 h -1.238318 l -0.882762,-1.81457 v 2.62377 z m 9.783921,0 H 26.841463 V 265 h 3.518785 v 0.68659 h -2.34177 v 1.37318 h 1.839086 v 0.68659 h -1.839086 v 1.70422 h 2.34177 z"
       id="text8"
       inkscape:label="Time"
       aria-label="TIME" />
    <path
       style="font-size:10.6667px;font-family:Dhurjati;-inkscape-font-specification:Dhurjati"
       d="m 46.402379,270.14114 v -5.13718 h 3.518785 v 0.6866 h -2.34177 v 1.37318 h 1.839086 v 0.68659 h -1.839086 v 2.39081 z m 4.560918,0.049 3.236792,-6.74332 h 1.226058 l -3.334877,6.80462 h -1.127973 z m 8.999249,-0.96859 q 0,0.22069 -0.122606,0.39234 -0.110345,0.17165 -0.318775,0.29425 -0.196169,0.11035 -0.453641,0.17165 -0.257472,0.0613 -0.539466,0.0613 h -2.268206 v -5.13718 h 2.12108 q 0.281993,0 0.539465,0.0613 0.269733,0.0613 0.465902,0.1839 0.196169,0.11035 0.318775,0.282 0.122605,0.17165 0.122605,0.39234 v 0.85824 q 0,0.0736 -0.02452,0.15938 -0.02452,0.0736 -0.07356,0.14713 -0.03678,0.0736 -0.110345,0.14713 -0.0613,0.0613 -0.159388,0.11034 0.08582,0.049 0.171648,0.11035 0.09809,0.0613 0.171648,0.14712 0.07356,0.0736 0.110345,0.17165 0.04904,0.0858 0.04904,0.20843 z m -1.667438,0.23295 q 0.22069,0 0.355556,-0.0858 0.134867,-0.0858 0.134867,-0.25747 v -1.01763 q 0,-0.15939 -0.122606,-0.24521 -0.122606,-0.0858 -0.343296,-0.0981 h -0.882762 v 1.70422 z m 0.343296,-2.73411 v -0.68659 q 0,-0.17165 -0.134867,-0.25747 -0.122605,-0.0858 -0.355556,-0.0858 h -0.711114 v 1.37318 h 0.711114 q 0.245211,0 0.367817,-0.0981 0.122606,-0.0981 0.122606,-0.24521 z"
       id="text9"
       inkscape:label="F/B"
       aria-label="F/B" />
    <path
       style="font-size:10.6667px;font-family:Dhurjati;-inkscape-font-specification:Dhurjati"
       d="m 51.137179,221.69427 h -3.518785 v -5.13718 h 1.177015 v 4.45059 h 2.34177 z m 4.352491,0 h -3.518785 v -5.13718 h 3.518785 v 0.6866 h -2.341769 v 1.37318 h 1.839086 v 0.68659 h -1.839086 v 1.70422 h 2.341769 z m 3.236782,-5.13718 q 0.281994,0 0.539466,0.0613 0.257472,0.0613 0.453641,0.18391 0.20843,0.11034 0.318775,0.28199 0.122606,0.17165 0.122606,0.39234 v 3.29809 q 0,0.22069 -0.122606,0.39234 -0.110345,0.17165 -0.318775,0.29425 -0.196169,0.11035 -0.453641,0.17165 -0.257472,0.0613 -0.539466,0.0613 h -2.366291 v -5.13718 z m 0.257473,1.02989 q 0,-0.17165 -0.134867,-0.25747 -0.134866,-0.0858 -0.367817,-0.0858 h -0.944064 v 3.76399 h 0.944064 q 0.232951,0 0.367817,-0.0858 0.134867,-0.0858 0.134867,-0.25747 z"
       id="text10"
       inkscape:label="LED"
       aria-label="LED" />
    <path
       style="font-size:10.6667px;font-family:Dhurjati;-inkscape-font-specification:Dhurjati"
       d="m 16.642917,219.20141 q -0.281993,0 -0.551726,-0.049 -0.257472,-0.0613 -0.453641,-0.17165 -0.196169,-0.12261 -0.318775,-0.29425 -0.122605,-0.17165 -0.122605,-0.39234 v -0.82146 q 0,-0.22069 0.122605,-0.39234 0.122606,-0.17165 0.318775,-0.28199 0.196169,-0.12261 0.453641,-0.18391 0.269733,-0.0613 0.551726,-0.0613 h 0.956325 q 0.294254,0 0.551726,0.0613 0.257472,0.0613 0.453641,0.18391 0.20843,0.11034 0.318775,0.28199 0.122606,0.17165 0.122606,0.39234 v 0.50268 h -1.177015 v -0.39234 q 0,-0.17164 -0.134866,-0.25747 -0.134867,-0.0858 -0.367818,-0.0858 h -0.490423 q -0.232951,0 -0.367817,0.0858 -0.134866,0.0858 -0.134866,0.25747 v 0.58851 q 0,0.18391 0.134866,0.26974 0.134866,0.0858 0.367817,0.0736 h 0.723374 q 0.294254,0 0.551726,0.0613 0.257472,0.0613 0.453641,0.18391 0.20843,0.11035 0.318775,0.28199 0.122606,0.17165 0.122606,0.39234 v 1.3364 q 0,0.22069 -0.122606,0.39234 -0.110345,0.17165 -0.318775,0.29426 -0.196169,0.11034 -0.453641,0.17164 -0.257472,0.0613 -0.551726,0.0613 h -0.956325 q -0.281993,0 -0.551726,-0.0613 -0.257472,-0.0613 -0.453641,-0.17164 -0.196169,-0.12261 -0.318775,-0.29426 -0.122605,-0.17165 -0.122605,-0.39234 v -0.68659 h 1.177015 v 0.57625 q 0,0.17165 0.134866,0.25747 0.134866,0.0858 0.367817,0.0858 h 0.490423 q 0.232951,0 0.367818,-0.0858 0.134866,-0.0858 0.134866,-0.25747 v -1.11571 q 0,-0.17165 -0.134866,-0.25748 -0.134867,-0.0858 -0.367818,-0.0858 z m 3.432959,2.53794 3.236791,-6.74332 h 1.226058 l -3.334876,6.80462 h -1.127973 z m 8.81534,-0.049 H 25.37243 v -5.13718 h 1.177016 v 4.45059 h 2.34177 z"
       id="text11"
       inkscape:label="S/L"
       aria-label="S/L" />
    <path
       style="font-size:13.3333px;font-family:Dhurjati;-inkscape-font-specification:Dhurjati"
       d="m 14.911728,44.86689 q 0.35249,0 0.674328,0.07663 0.321838,0.07663 0.567048,0.229884 0.260536,0.137931 0.398467,0.35249 0.153256,0.214558 0.153256,0.49042 v 4.122595 q 0,0.275861 -0.153256,0.49042 -0.137931,0.214559 -0.398467,0.367815 -0.24521,0.137931 -0.567048,0.214559 -0.321838,0.07663 -0.674328,0.07663 h -2.957847 v -6.42144 z m 0.321838,1.287353 q 0,-0.214558 -0.168582,-0.321838 -0.168582,-0.107279 -0.459769,-0.107279 h -1.180073 v 4.704969 h 1.180073 q 0.291187,0 0.459769,-0.10728 0.168582,-0.107279 0.168582,-0.321838 z m 6.773919,5.134087 h -4.398457 v -6.42144 h 4.398457 v 0.858236 h -2.927196 v 1.716471 h 2.298845 v 0.858235 h -2.298845 v 2.130263 h 2.927196 z m 5.486563,0 h -4.398457 v -6.42144 h 1.471261 v 5.563205 h 2.927196 z m 5.134071,-6.42144 2.344822,6.42144 H 33.50168 l -0.536397,-1.517237 h -2.80459 L 29.639621,51.28833 H 28.16836 l 2.329496,-6.42144 z m -2.176239,4.045967 h 2.222216 L 31.570651,46.06229 Z m 6.314156,-4.045967 1.624517,2.206891 1.639843,-2.206891 h 1.47126 l -2.375473,3.203057 v 3.218383 h -1.47126 V 48.069947 L 35.294776,44.86689 Z m 13.440555,0.858236 H 48.459469 V 51.28833 H 46.972883 V 45.725126 H 45.225761 V 44.86689 h 4.98083 z m 0.888885,5.563204 v -6.42144 h 1.47126 v 6.42144 z m 2.620666,0 v -6.42144 h 1.517237 l 1.82375,3.816083 1.839076,-3.816083 h 1.501912 v 6.42144 h -1.486586 v -3.264359 l -1.072794,2.252867 h -1.547889 l -1.103446,-2.268193 v 3.279685 z m 12.229831,0 h -4.398456 v -6.42144 h 4.398456 v 0.858236 h -2.927196 v 1.716471 h 2.298845 v 0.858235 h -2.298845 v 2.130263 h 2.927196 z"
       id="text12"
       inkscape:label="Delay Time"
       aria-label="DELAY TIME" />
    <path
       style="font-size:13.3333px;font-family:Dhurjati;-inkscape-font-specification:Dhurjati"
       d="M 15.78435,139.42144 V 133 h 4.398457 v 0.85824 h -2.927196 v 1.71647 h 2.298845 v 0.85823 h -2.298845 v 2.9885 z m 9.915665,0 H 21.301558 V 133 h 4.398457 v 0.85824 h -2.927196 v 1.71647 h 2.298845 v 0.85823 h -2.298845 v 2.13026 h 2.927196 z m 5.486563,0 H 26.788122 V 133 h 4.398456 v 0.85824 h -2.927195 v 1.71647 h 2.298844 v 0.85823 h -2.298844 v 2.13026 h 2.927195 z M 35.232533,133 q 0.352489,0 0.674327,0.0766 0.321839,0.0766 0.567049,0.22988 0.260536,0.13793 0.398466,0.35249 0.153257,0.21456 0.153257,0.49042 v 4.1226 q 0,0.27586 -0.153257,0.49042 -0.13793,0.21456 -0.398466,0.36781 -0.24521,0.13793 -0.567049,0.21456 -0.321838,0.0766 -0.674327,0.0766 H 32.274686 V 133 Z m 0.321838,1.28735 q 0,-0.21456 -0.168582,-0.32183 -0.168582,-0.10728 -0.459769,-0.10728 h -1.180074 v 4.70496 h 1.180074 q 0.291187,0 0.459769,-0.10727 0.168582,-0.10728 0.168582,-0.32184 z m 7.003803,3.98467 q 0,0.27586 -0.153256,0.49042 -0.137931,0.21456 -0.398467,0.36781 -0.24521,0.13793 -0.567048,0.21456 -0.321838,0.0766 -0.674328,0.0766 H 37.929833 V 133 h 2.651335 q 0.352489,0 0.674327,0.0766 0.337164,0.0766 0.582374,0.22988 0.24521,0.13793 0.398467,0.35249 0.153256,0.21456 0.153256,0.49042 v 1.0728 q 0,0.092 -0.03065,0.19923 -0.03065,0.092 -0.09195,0.18391 -0.04598,0.0919 -0.137931,0.18391 -0.07663,0.0766 -0.199233,0.13793 0.10728,0.0613 0.214559,0.13793 0.122605,0.0766 0.214559,0.1839 0.09195,0.092 0.137931,0.21456 0.0613,0.10728 0.0613,0.26054 z m -2.084286,0.29118 q 0.275862,0 0.444443,-0.10727 0.168582,-0.10728 0.168582,-0.32184 v -1.27203 q 0,-0.19923 -0.153256,-0.30651 -0.153256,-0.10728 -0.429118,-0.12261 h -1.103445 v 2.13026 z m 0.429118,-3.41761 v -0.85824 q 0,-0.21456 -0.168582,-0.32183 -0.153256,-0.10728 -0.444443,-0.10728 h -0.888887 v 1.71647 h 0.888887 q 0.306512,0 0.459769,-0.12261 0.153256,-0.1226 0.153256,-0.30651 z M 47.630944,133 l 2.344822,6.42144 h -1.471261 l -0.536397,-1.51724 h -2.804591 l -0.521071,1.51724 H 43.171185 L 45.500681,133 Z m -2.17624,4.04597 h 2.222217 l -1.103446,-2.85057 z m 5.241363,-2.89655 q 0,-0.27586 0.153256,-0.49042 0.153256,-0.21456 0.398466,-0.35249 0.245211,-0.15325 0.567049,-0.22988 Q 52.152002,133 52.504491,133 h 1.026818 q 0.352489,0 0.674327,0.0766 0.321839,0.0766 0.567049,0.22988 0.260536,0.13793 0.398466,0.35249 0.153257,0.21456 0.153257,0.49042 v 0.85824 h -1.471261 v -0.72031 q 0,-0.21456 -0.168582,-0.32183 -0.168582,-0.10728 -0.444443,-0.10728 h -0.444444 q -0.291187,0 -0.459769,0.10728 -0.168582,0.10727 -0.168582,0.32183 v 3.84674 q 0,0.21456 0.168582,0.32184 0.168582,0.10727 0.459769,0.10727 h 0.444444 q 0.275861,0 0.444443,-0.10727 0.168582,-0.10728 0.168582,-0.32184 v -0.72031 h 1.471261 v 0.85824 q 0,0.27586 -0.153257,0.49042 -0.13793,0.21456 -0.398466,0.36781 -0.24521,0.13793 -0.567049,0.21456 -0.321838,0.0766 -0.674327,0.0766 h -1.026818 q -0.352489,0 -0.689653,-0.0766 -0.321838,-0.0766 -0.567049,-0.21456 -0.24521,-0.15325 -0.398466,-0.36781 -0.153256,-0.21456 -0.153256,-0.49042 z m 5.655147,5.27202 V 133 h 1.471261 v 3.17241 L 60.136645,133 h 1.532564 l -2.344822,3.23371 2.344822,3.18773 h -1.532564 l -2.31417,-3.14175 v 3.14175 z"
       id="text13"
       inkscape:label="Feedback"
       aria-label="FEEDBACK" />
    <path
       style="font-size:13.3333px;font-family:Ramabhadra;-inkscape-font-specification:Ramabhadra"
       d="m 2.812436,20.042282 h 2.8754948 q 1.2208804,0 1.9758986,0.337348 0.7550182,0.337349 1.2208804,1.285138 0.4658623,0.931724 0.4658623,2.36144 0,3.823283 -3.5823203,3.823283 H 2.812436 Z m 1.5742932,1.317266 v 5.172677 H 5.559417 q 1.2048163,0 1.6867428,-0.514055 0.4819265,-0.530119 0.4819265,-2.072283 0,-1.14056 -0.3052202,-1.702807 Q 7.1337102,21.680832 6.667848,21.52019 6.2180499,21.359548 5.0935548,21.359548 Z m 13.2208258,6.489943 h -1.718871 l -0.674698,-1.767064 h -3.132522 l -0.642568,1.767064 H 9.7682171 l 3.0361369,-7.807209 h 1.670679 z m -2.907623,-3.084329 -1.076303,-2.907624 -1.060238,2.907624 z m 3.485916,3.084329 v -7.807209 h 1.590357 v 7.807209 z m 2.409625,-2.570275 1.5261,-0.160642 q 0.273092,1.510037 1.718871,1.510037 1.526101,0 1.526101,-1.076303 0,-0.417669 -0.337349,-0.61044 -0.337348,-0.208835 -1.654614,-0.546183 -2.489953,-0.626505 -2.489953,-2.345376 0,-1.044174 0.771082,-1.606422 0.787147,-0.562247 2.072284,-0.562247 2.907623,0 2.987944,2.36144 l -1.574293,0.06426 q -0.176706,-1.124495 -1.429715,-1.124495 -1.317266,0 -1.317266,0.771083 0,0.257027 0.224899,0.481926 0.240963,0.224899 1.461844,0.530119 1.975898,0.514055 2.409632,1.14056 0.449798,0.61044 0.449798,1.429715 0,2.425697 -3.116458,2.425697 -2.907623,0 -3.228907,-2.682725 z m 9.622463,2.570275 v -3.293164 l -2.85943,-4.514045 h 1.847385 l 1.847385,3.084329 1.783128,-3.084329 h 1.815256 l -2.859431,4.530109 v 3.2771 z m 4.995947,0 v -1.140559 h 1.14056 v 1.140559 z m 2.313229,-7.807209 h 2.875495 q 1.22088,0 1.975898,0.337348 0.755018,0.337349 1.220881,1.285138 0.465862,0.931724 0.465862,2.36144 0,3.823283 -3.58232,3.823283 h -2.955816 z m 1.574293,1.317266 v 5.172677 h 1.172688 q 1.204816,0 1.686743,-0.514055 0.481926,-0.530119 0.481926,-2.072283 0,-1.14056 -0.30522,-1.702807 -0.289156,-0.562248 -0.755018,-0.72289 -0.449798,-0.160642 -1.574293,-0.160642 z m 5.975863,6.489943 v -7.807209 h 5.799182 v 1.317266 h -4.224889 v 1.734935 h 3.919669 v 1.317266 h -3.919669 v 2.120476 h 4.369467 v 1.317266 z m 6.971851,0 v -7.807209 h 1.590357 v 6.489943 h 3.903605 v 1.317266 z m 13.638505,0 h -1.718871 l -0.674697,-1.767064 h -3.132523 l -0.642568,1.767064 h -1.670679 l 3.036137,-7.807209 h 1.670679 z m -2.907623,-3.084329 -1.076303,-2.907624 -1.060238,2.907624 z m 5.783097,3.084329 v -3.293164 l -2.859431,-4.514045 h 1.847385 l 1.847385,3.084329 1.783128,-3.084329 h 1.815256 l -2.85943,4.530109 v 3.2771 z"
       id="text14"
       inkscape:label="Daisy.Delay"
       aria-label="DAISY.DELAY" />
  </g>
</svg>
