<?xml version="1.0" encoding="UTF-8" standalone="no"?>
<!-- Created with Inkscape (http://www.inkscape.org/) -->

<svg
   width="30.48mm"
   height="128.5mm"
   viewBox="0 0 30.480002 128.50002"
   version="1.1"
   id="svg8"
   sodipodi:docname="DelayProto.svg"
   inkscape:version="1.3.2 (091e20e, 2023-11-25)"
   xmlns:inkscape="http://www.inkscape.org/namespaces/inkscape"
   xmlns:sodipodi="http://sodipodi.sourceforge.net/DTD/sodipodi-0.dtd"
   xmlns="http://www.w3.org/2000/svg"
   xmlns:svg="http://www.w3.org/2000/svg"
   xmlns:rdf="http://www.w3.org/1999/02/22-rdf-syntax-ns#"
   xmlns:cc="http://creativecommons.org/ns#"
   xmlns:dc="http://purl.org/dc/elements/1.1/">
  <sodipodi:namedview
     id="namedview1"
     pagecolor="#ffffff"
     bordercolor="#000000"
     borderopacity="0.25"
     inkscape:showpageshadow="2"
     inkscape:pageopacity="0.0"
     inkscape:pagecheckerboard="0"
     inkscape:deskcolor="#d1d1d1"
     inkscape:document-units="mm"
     showgrid="false"
     inkscape:zoom="1.6801556"
     inkscape:cx="63.982169"
     inkscape:cy="242.23947"
     inkscape:window-width="1920"
     inkscape:window-height="1016"
     inkscape:window-x="0"
     inkscape:window-y="0"
     inkscape:window-maximized="1"
     inkscape:current-layer="layer1" />
  <defs
     id="defs2" />
  <metadata
     id="metadata5">
    <rdf:RDF>
      <cc:Work
         rdf:about="">
        <dc:format>image/svg+xml</dc:format>
        <dc:type
           rdf:resource="http://purl.org/dc/dcmitype/StillImage" />
      </cc:Work>
    </rdf:RDF>
  </metadata>
  <g
     id="layer1"
     transform="translate(0,-168.49997)">
    <rect
       style="display:inline;opacity:1;vector-effect:none;fill:#e6e6e6;fill-opacity:1;fill-rule:evenodd;stroke:none;stroke-width:0.649358;stroke-linecap:butt;stroke-linejoin:miter;stroke-miterlimit:4;stroke-dasharray:none;stroke-dashoffset:0;stroke-opacity:1;paint-order:normal"
       id="rect420"
       width="30.48"
       height="128.5"
       x="5.9211732e-17"
       y="168.49997" />
    <path
       style="font-size:5.29167px;stroke:#000000;stroke-width:0.264583"
       d="m 4.2330463,117.86351 -0.7079676,1.91978 h 1.4185189 z m -0.2945559,-0.51418 h 0.5916955 l 1.4701954,3.85765 H 5.4577784 l -0.3513999,-0.98961 h -1.738913 l -0.3513999,0.98961 H 2.4657112 Z m 2.5554011,2.7156 V 118.3131 H 6.969315 v 1.73374 q 0,0.41083 0.160197,0.61753 0.160197,0.20413 0.4805911,0.20413 0.3849897,0 0.6071985,-0.24547 0.2247926,-0.24546 0.2247926,-0.66921 v -1.64072 h 0.4754234 v 2.89388 H 8.4420942 v -0.44442 q -0.1731162,0.26355 -0.4030764,0.39274 -0.2273765,0.12661 -0.5296838,0.12661 -0.4986779,0 -0.7570602,-0.31006 -0.2583823,-0.31006 -0.2583823,-0.90692 z m 1.1963101,-1.8216 z m 4.1108624,0.50902 v -1.5658 h 0.475424 v 4.02043 h -0.475424 v -0.43408 q -0.149861,0.25838 -0.379822,0.38499 -0.227376,0.12402 -0.54777,0.12402 -0.524516,0 -0.855246,-0.41858 -0.3281453,-0.41858 -0.3281453,-1.10071 0,-0.68213 0.3281453,-1.10071 0.33073,-0.41858 0.855246,-0.41858 0.320394,0 0.54777,0.12661 0.229961,0.12402 0.379822,0.38241 z m -1.620057,1.01027 q 0,0.52452 0.214457,0.82424 0.217042,0.29714 0.59428,0.29714 0.377238,0 0.594279,-0.29714 0.217041,-0.29972 0.217041,-0.82424 0,-0.52452 -0.217041,-0.82166 -0.217041,-0.29972 -0.594279,-0.29972 -0.377238,0 -0.59428,0.29972 -0.214457,0.29714 -0.214457,0.82166 z m 3.074749,-1.44952 h 0.475424 v 2.89388 h -0.475424 z m 0,-1.12655 h 0.475424 v 0.60203 h -0.475424 z m 2.591575,1.45986 q -0.382406,0 -0.604614,0.29972 -0.222209,0.29714 -0.222209,0.81649 0,0.51935 0.219625,0.81907 0.222209,0.29714 0.607198,0.29714 0.379822,0 0.602031,-0.29972 0.222209,-0.29972 0.222209,-0.81649 0,-0.51418 -0.222209,-0.8139 -0.222209,-0.30231 -0.602031,-0.30231 z m 0,-0.40308 q 0.620118,0 0.974102,0.40308 0.353983,0.40308 0.353983,1.11621 0,0.71055 -0.353983,1.11621 -0.353984,0.40308 -0.974102,0.40308 -0.622701,0 -0.976685,-0.40308 -0.3514,-0.40566 -0.3514,-1.11621 0,-0.71313 0.3514,-1.11621 0.353984,-0.40308 0.976685,-0.40308 z m 5.384688,-0.54002 q -0.568441,0 -0.904338,0.42375 -0.333313,0.42375 -0.333313,1.15497 0,0.72864 0.333313,1.15238 0.335897,0.42375 0.904338,0.42375 0.568441,0 0.89917,-0.42375 0.333314,-0.42374 0.333314,-1.15238 0,-0.73122 -0.333314,-1.15497 -0.330729,-0.42375 -0.89917,-0.42375 z m 0,-0.42374 q 0.81132,0 1.297079,0.54518 0.485759,0.54261 0.485759,1.45728 0,0.91209 -0.485759,1.45728 -0.485759,0.5426 -1.297079,0.5426 -0.813904,0 -1.302247,-0.5426 -0.485759,-0.54261 -0.485759,-1.45728 0,-0.91467 0.485759,-1.45728 0.488343,-0.54518 1.302247,-0.54518 z m 2.529563,2.78536 v -1.75183 h 0.475423 v 1.73374 q 0,0.41083 0.160197,0.61753 0.160197,0.20413 0.480592,0.20413 0.384989,0 0.607198,-0.24547 0.224793,-0.24546 0.224793,-0.66921 v -1.64072 h 0.475423 v 2.89388 h -0.475423 v -0.44442 q -0.173117,0.26355 -0.403077,0.39274 -0.227376,0.12661 -0.529684,0.12661 -0.498677,0 -0.75706,-0.31006 -0.258382,-0.31006 -0.258382,-0.90692 z m 1.19631,-1.8216 z m 2.67684,-0.75189 v 0.82166 h 0.979269 v 0.36948 h -0.979269 v 1.57097 q 0,0.35398 0.0956,0.45475 0.09819,0.10077 0.395325,0.10077 h 0.488342 v 0.39791 h -0.488342 q -0.550355,0 -0.759644,-0.20412 -0.20929,-0.20671 -0.20929,-0.74931 v -1.57097 h -0.348816 v -0.36948 h 0.348816 v -0.82166 z"
       id="text4-3-3"
       transform="translate(0,168.49998)"
       aria-label="Audio Out" />
    <path
       style="font-size:5.29167px;stroke:#000000;stroke-width:0.264583"
       d="M 6.1958165,86.417679 5.4878489,88.33746 h 1.418519 z m -0.2945559,-0.51418 h 0.5916956 l 1.4701953,3.857648 H 7.4205487 l -0.3514,-0.989605 H 5.3302357 L 4.9788358,89.761147 H 4.4284814 Z m 2.5554011,2.715598 v -1.751832 h 0.4754235 v 1.733745 q 0,0.410828 0.160197,0.617534 0.1601971,0.204122 0.4805911,0.204122 0.3849897,0 0.6071987,-0.245463 0.224792,-0.245464 0.224792,-0.669211 v -1.640727 h 0.475424 v 2.893882 h -0.475424 v -0.444418 q -0.173116,0.26355 -0.403076,0.392741 -0.2273765,0.126607 -0.5296838,0.126607 -0.4986778,0 -0.7570602,-0.310058 Q 8.4566617,89.21596 8.4566617,88.619097 Z m 1.1963102,-1.821596 z m 4.1108621,0.509014 v -1.565797 h 0.475424 v 4.020429 h -0.475424 v -0.434083 q -0.149861,0.258383 -0.379822,0.38499 -0.227376,0.124023 -0.54777,0.124023 -0.524516,0 -0.855245,-0.418579 -0.328146,-0.418579 -0.328146,-1.100709 0,-0.682129 0.328146,-1.100708 0.330729,-0.41858 0.855245,-0.41858 0.320394,0 0.54777,0.126608 0.229961,0.124023 0.379822,0.382406 z m -1.620057,1.010274 q 0,0.524516 0.214458,0.82424 0.217041,0.29714 0.594279,0.29714 0.377238,0 0.594279,-0.29714 0.217041,-0.299724 0.217041,-0.82424 0,-0.524516 -0.217041,-0.821655 -0.217041,-0.299724 -0.594279,-0.299724 -0.377238,0 -0.594279,0.299724 -0.214458,0.297139 -0.214458,0.821655 z m 3.07475,-1.449524 h 0.475423 v 2.893882 h -0.475423 z m 0,-1.126547 h 0.475423 v 0.60203 h -0.475423 z m 2.591575,1.45986 q -0.382406,0 -0.604615,0.299723 -0.222209,0.29714 -0.222209,0.816488 0,0.519349 0.219625,0.819072 0.222209,0.29714 0.607199,0.29714 0.379822,0 0.60203,-0.299723 0.222209,-0.299724 0.222209,-0.816489 0,-0.51418 -0.222209,-0.813904 -0.222208,-0.302307 -0.60203,-0.302307 z m 0,-0.403077 q 0.620117,0 0.974101,0.403077 0.353984,0.403076 0.353984,1.116211 0,0.710552 -0.353984,1.116212 -0.353984,0.403076 -0.974101,0.403076 -0.622702,0 -0.976686,-0.403076 -0.3514,-0.40566 -0.3514,-1.116212 0,-0.713135 0.3514,-1.116211 0.353984,-0.403077 0.976686,-0.403077 z m 3.81889,-0.894002 h 0.521933 v 3.857648 h -0.521933 z m 3.945498,2.110983 v 1.746665 h -0.475423 v -1.731162 q 0,-0.410828 -0.160197,-0.61495 -0.160197,-0.204122 -0.480592,-0.204122 -0.384989,0 -0.607198,0.245463 -0.222209,0.245463 -0.222209,0.66921 v 1.635561 h -0.478007 v -2.893882 h 0.478007 v 0.449585 q 0.170533,-0.260966 0.400493,-0.390157 0.232544,-0.129192 0.534851,-0.129192 0.498678,0 0.754477,0.310059 0.255798,0.307475 0.255798,0.906922 z"
       id="text4-3"
       transform="translate(0,168.49998)"
       aria-label="Audio In" />
    <g
       id="text4"
       style="font-size:6.35px;fill:#e6e6e6;stroke-width:0.264583"
       transform="translate(0,168.49998)"
       aria-label="MySweetDelay">
      <path
         style="stroke:#000000"
         d="M 3.6665422,3.8712477 H 4.5998186 L 5.7811418,7.021443 6.9686662,3.8712477 H 7.9019426 V 8.5004225 H 7.2911271 V 4.4355544 L 6.0974016,7.6105543 H 5.4679826 L 4.2742571,4.4355544 V 8.5004225 H 3.6665422 Z M 10.565346,8.8228834 Q 10.3235,9.4430006 10.094057,9.6321363 9.8646136,9.8212721 9.480141,9.8212721 H 9.0243548 V 9.3437818 h 0.3348633 q 0.2356445,0 0.3658691,-0.1116211 0.1302247,-0.111621 0.2883548,-0.5270996 L 10.115761,8.4446119 8.7111957,5.0277663 H 9.3158099 L 10.401015,7.7438795 11.48622,5.0277663 h 0.604614 z"
         id="path1" />
      <path
         style="stroke:#000000"
         d="m 6.4415666,11.960675 v 0.610816 Q 6.0849992,12.400959 5.7687395,12.317243 5.4524797,12.233527 5.157924,12.233527 q -0.5115966,0 -0.7906494,0.198438 -0.2759521,0.198437 -0.2759521,0.564306 0,0.306958 0.1829346,0.465088 0.1860351,0.155029 0.7007324,0.251148 l 0.3782715,0.07751 q 0.7007324,0.133325 1.0324951,0.471289 0.3348632,0.334864 0.3348632,0.89917 0,0.672827 -0.4526855,1.020093 -0.449585,0.347266 -1.3208496,0.347266 -0.3286621,0 -0.7007324,-0.07442 -0.3689697,-0.07441 -0.7658447,-0.220141 v -0.644922 q 0.381372,0.21394 0.7472412,0.322461 0.3658691,0.10852 0.7193359,0.10852 0.5364014,0 0.8278564,-0.210839 0.2914551,-0.21084 0.2914551,-0.601514 0,-0.341065 -0.2108398,-0.533301 Q 5.6478166,14.481452 5.1703264,14.385334 L 4.7889543,14.31092 Q 4.0882219,14.171393 3.7750627,13.873737 3.4619036,13.576081 3.4619036,13.045881 q 0,-0.613916 0.4309814,-0.967383 0.434082,-0.353467 1.1937256,-0.353467 0.3255615,0 0.6635254,0.05891 0.3379638,0.05891 0.6914306,0.176733 z m 0.89917,1.00459 h 0.5705078 l 0.7131347,2.709912 0.7100342,-2.709912 H 10.00724 l 0.713135,2.709912 0.710034,-2.709912 h 0.570508 l -0.908471,3.472657 H 10.419618 L 9.6723772,13.591584 8.9220354,16.437922 H 8.2492082 Z m 8.4956054,1.593701 v 0.279053 h -2.623096 q 0.03721,0.589112 0.353467,0.89917 0.31936,0.306958 0.886768,0.306958 0.328662,0 0.63562,-0.08061 0.310058,-0.08061 0.613916,-0.241846 v 0.539502 q -0.306958,0.130225 -0.629419,0.198438 -0.322461,0.06821 -0.654224,0.06821 -0.830957,0 -1.317749,-0.483692 -0.483691,-0.483691 -0.483691,-1.308447 0,-0.852661 0.458887,-1.351856 0.461987,-0.502294 1.243334,-0.502294 0.700733,0 1.10691,0.452685 0.409277,0.449585 0.409277,1.224731 z m -0.570508,-0.167431 q -0.0062,-0.468189 -0.26355,-0.747241 -0.254248,-0.279053 -0.675927,-0.279053 -0.477491,0 -0.765845,0.269751 -0.285254,0.269751 -0.328662,0.759643 z m 4.477246,0.167431 v 0.279053 h -2.623095 q 0.03721,0.589112 0.353466,0.89917 0.319361,0.306958 0.886768,0.306958 0.328662,0 0.63562,-0.08061 0.310059,-0.08061 0.613916,-0.241846 v 0.539502 q -0.306958,0.130225 -0.629419,0.198438 -0.322461,0.06821 -0.654223,0.06821 -0.830957,0 -1.317749,-0.483692 -0.483692,-0.483691 -0.483692,-1.308447 0,-0.852661 0.458887,-1.351856 0.461987,-0.502294 1.243335,-0.502294 0.700732,0 1.106909,0.452685 0.409277,0.449585 0.409277,1.224731 z m -0.570508,-0.167431 q -0.0062,-0.468189 -0.263549,-0.747241 -0.254248,-0.279053 -0.675928,-0.279053 -0.47749,0 -0.765845,0.269751 -0.285254,0.269751 -0.328662,0.759643 z m 2.071192,-2.412256 v 0.985986 h 1.175122 v 0.443384 h -1.175122 v 1.885156 q 0,0.424781 0.114722,0.545703 0.117822,0.120923 0.474389,0.120923 h 0.586011 v 0.477491 h -0.586011 q -0.660425,0 -0.911572,-0.244947 -0.251147,-0.248047 -0.251147,-0.89917 v -1.885156 h -0.41858 v -0.443384 h 0.41858 v -0.985986 z"
         id="path2" />
      <path
         style="stroke:#000000"
         d="m 4.2928606,20.260944 v 3.59978 h 0.7565429 q 0.9580811,0 1.4014649,-0.434082 0.4464843,-0.434082 0.4464843,-1.370459 0,-0.930175 -0.4464843,-1.361157 Q 6.0074846,20.260944 5.0494035,20.260944 Z M 3.6665422,19.746247 h 1.2867432 q 1.3456543,0 1.9750732,0.561206 0.6294189,0.558105 0.6294189,1.74873 0,1.196826 -0.6325195,1.758032 -0.6325195,0.561207 -1.9719726,0.561207 H 3.6665422 Z m 7.8351808,2.750219 v 0.279053 H 8.8786273 q 0.037207,0.589112 0.3534668,0.89917 0.3193603,0.306958 0.8867679,0.306958 0.328662,0 0.63562,-0.08061 0.310058,-0.08062 0.613916,-0.241846 v 0.539502 q -0.306958,0.130225 -0.629419,0.198438 -0.322461,0.06821 -0.654224,0.06821 -0.8309568,0 -1.3177488,-0.483692 -0.4836914,-0.483691 -0.4836914,-1.308447 0,-0.852661 0.4588867,-1.351856 0.4619873,-0.502294 1.2433349,-0.502294 0.7007326,0 1.1069096,0.452685 0.409277,0.449585 0.409277,1.224731 z m -0.570508,-0.167431 q -0.0062,-0.468189 -0.26355,-0.747241 -0.254248,-0.279053 -0.6759274,-0.279053 -0.4774902,0 -0.7658447,0.269751 -0.2852539,0.269751 -0.3286621,0.759643 z m 1.506884,-2.778125 h 0.570508 v 4.824512 h -0.570508 z m 3.342432,3.078882 q -0.69143,0 -0.958081,0.15813 -0.26665,0.158129 -0.26665,0.539501 0,0.303858 0.198437,0.483692 0.201538,0.176733 0.545703,0.176733 0.47439,0 0.759644,-0.334863 0.288354,-0.337964 0.288354,-0.896069 v -0.127124 z m 1.137915,-0.235645 v 1.981275 h -0.570508 v -0.5271 q -0.195336,0.31626 -0.486791,0.468188 -0.291456,0.148829 -0.713135,0.148829 -0.533301,0 -0.849561,-0.297657 -0.313159,-0.300757 -0.313159,-0.803051 0,-0.586011 0.390674,-0.883667 0.393774,-0.297657 1.172021,-0.297657 h 0.799951 v -0.05581 q 0,-0.393775 -0.260449,-0.607715 -0.257348,-0.217041 -0.725537,-0.217041 -0.297656,0 -0.579809,0.07131 -0.282154,0.07131 -0.542603,0.213941 v -0.5271 q 0.313159,-0.120923 0.607715,-0.179834 0.294556,-0.06201 0.573608,-0.06201 0.753443,0 1.125513,0.390673 0.37207,0.390674 0.37207,1.184424 z m 2.619995,2.303735 q -0.241845,0.620118 -0.471289,0.809253 -0.229443,0.189136 -0.613916,0.189136 H 17.99745 v -0.47749 h 0.334864 q 0.235644,0 0.365869,-0.111621 0.130224,-0.111621 0.288354,-0.5271 l 0.102319,-0.260449 -1.404565,-3.416846 h 0.604614 l 1.085205,2.716114 1.085205,-2.716114 h 0.604615 z"
         id="path3" />
    </g>
    <circle
       style="display:inline;opacity:1;vector-effect:none;fill:#0000ff;fill-opacity:1;fill-rule:evenodd;stroke:none;stroke-width:1;stroke-linecap:butt;stroke-linejoin:miter;stroke-miterlimit:4;stroke-dasharray:none;stroke-dashoffset:0;stroke-opacity:1;paint-order:normal"
       id="circle4958"
       cx="15.24"
       cy="108.71259"
       r="4"
       transform="translate(0,168.49998)" />
    <circle
       r="4"
       cy="77.477875"
       cx="15.24"
       id="circle4956"
       style="display:inline;opacity:1;vector-effect:none;fill:#00ff00;fill-opacity:1;fill-rule:evenodd;stroke:none;stroke-width:1;stroke-linecap:butt;stroke-linejoin:miter;stroke-miterlimit:4;stroke-dasharray:none;stroke-dashoffset:0;stroke-opacity:1;paint-order:normal"
       transform="translate(0,168.49998)" />
  </g>
</svg>
