<?xml version="1.0" encoding="UTF-8" standalone="no"?>
<!-- Created with Inkscape (http://www.inkscape.org/) -->

<svg
   width="30.48mm"
   height="128.5mm"
   viewBox="0 0 30.480002 128.50002"
   version="1.1"
   id="svg8"
   sodipodi:docname="DelayParamsProto.svg"
   inkscape:version="1.3.2 (091e20e, 2023-11-25)"
   xmlns:inkscape="http://www.inkscape.org/namespaces/inkscape"
   xmlns:sodipodi="http://sodipodi.sourceforge.net/DTD/sodipodi-0.dtd"
   xmlns="http://www.w3.org/2000/svg"
   xmlns:svg="http://www.w3.org/2000/svg"
   xmlns:rdf="http://www.w3.org/1999/02/22-rdf-syntax-ns#"
   xmlns:cc="http://creativecommons.org/ns#"
   xmlns:dc="http://purl.org/dc/elements/1.1/">
  <sodipodi:namedview
     id="namedview1"
     pagecolor="#ffffff"
     bordercolor="#000000"
     borderopacity="0.25"
     inkscape:showpageshadow="2"
     inkscape:pageopacity="0.0"
     inkscape:pagecheckerboard="0"
     inkscape:deskcolor="#d1d1d1"
     inkscape:document-units="mm"
     showgrid="false"
     inkscape:zoom="3.3653687"
     inkscape:cx="57.943132"
     inkscape:cy="79.634663"
     inkscape:window-width="1920"
     inkscape:window-height="1016"
     inkscape:window-x="0"
     inkscape:window-y="0"
     inkscape:window-maximized="1"
     inkscape:current-layer="svg8" />
  <defs
     id="defs2" />
  <metadata
     id="metadata5">
    <rdf:RDF>
      <cc:Work
         rdf:about="">
        <dc:format>image/svg+xml</dc:format>
        <dc:type
           rdf:resource="http://purl.org/dc/dcmitype/StillImage" />
      </cc:Work>
    </rdf:RDF>
  </metadata>
  <g
     id="layer1"
     transform="translate(0,-168.49997)"
     inkscape:label="components">
    <g
       id="text4"
       style="font-size:6.35px;fill:#e6e6e6;stroke-width:0.264583"
       transform="translate(0,168.49998)"
       aria-label="MySweetDelay">
      <path
         style="stroke:#000000"
         d="M 3.6665422,3.8712477 H 4.5998186 L 5.7811418,7.021443 6.9686662,3.8712477 H 7.9019426 V 8.5004225 H 7.2911271 V 4.4355544 L 6.0974016,7.6105543 H 5.4679826 L 4.2742571,4.4355544 V 8.5004225 H 3.6665422 Z M 10.565346,8.8228834 Q 10.3235,9.4430006 10.094057,9.6321363 9.8646136,9.8212721 9.480141,9.8212721 H 9.0243548 V 9.3437818 h 0.3348633 q 0.2356445,0 0.3658691,-0.1116211 0.1302247,-0.111621 0.2883548,-0.5270996 L 10.115761,8.4446119 8.7111957,5.0277663 H 9.3158099 L 10.401015,7.7438795 11.48622,5.0277663 h 0.604614 z"
         id="path1" />
      <path
         style="stroke:#000000"
         d="m 6.4415666,11.960675 v 0.610816 Q 6.0849992,12.400959 5.7687395,12.317243 5.4524797,12.233527 5.157924,12.233527 q -0.5115966,0 -0.7906494,0.198438 -0.2759521,0.198437 -0.2759521,0.564306 0,0.306958 0.1829346,0.465088 0.1860351,0.155029 0.7007324,0.251148 l 0.3782715,0.07751 q 0.7007324,0.133325 1.0324951,0.471289 0.3348632,0.334864 0.3348632,0.89917 0,0.672827 -0.4526855,1.020093 -0.449585,0.347266 -1.3208496,0.347266 -0.3286621,0 -0.7007324,-0.07442 -0.3689697,-0.07441 -0.7658447,-0.220141 v -0.644922 q 0.381372,0.21394 0.7472412,0.322461 0.3658691,0.10852 0.7193359,0.10852 0.5364014,0 0.8278564,-0.210839 0.2914551,-0.21084 0.2914551,-0.601514 0,-0.341065 -0.2108398,-0.533301 Q 5.6478166,14.481452 5.1703264,14.385334 L 4.7889543,14.31092 Q 4.0882219,14.171393 3.7750627,13.873737 3.4619036,13.576081 3.4619036,13.045881 q 0,-0.613916 0.4309814,-0.967383 0.434082,-0.353467 1.1937256,-0.353467 0.3255615,0 0.6635254,0.05891 0.3379638,0.05891 0.6914306,0.176733 z m 0.89917,1.00459 h 0.5705078 l 0.7131347,2.709912 0.7100342,-2.709912 H 10.00724 l 0.713135,2.709912 0.710034,-2.709912 h 0.570508 l -0.908471,3.472657 H 10.419618 L 9.6723772,13.591584 8.9220354,16.437922 H 8.2492082 Z m 8.4956054,1.593701 v 0.279053 h -2.623096 q 0.03721,0.589112 0.353467,0.89917 0.31936,0.306958 0.886768,0.306958 0.328662,0 0.63562,-0.08061 0.310058,-0.08061 0.613916,-0.241846 v 0.539502 q -0.306958,0.130225 -0.629419,0.198438 -0.322461,0.06821 -0.654224,0.06821 -0.830957,0 -1.317749,-0.483692 -0.483691,-0.483691 -0.483691,-1.308447 0,-0.852661 0.458887,-1.351856 0.461987,-0.502294 1.243334,-0.502294 0.700733,0 1.10691,0.452685 0.409277,0.449585 0.409277,1.224731 z m -0.570508,-0.167431 q -0.0062,-0.468189 -0.26355,-0.747241 -0.254248,-0.279053 -0.675927,-0.279053 -0.477491,0 -0.765845,0.269751 -0.285254,0.269751 -0.328662,0.759643 z m 4.477246,0.167431 v 0.279053 h -2.623095 q 0.03721,0.589112 0.353466,0.89917 0.319361,0.306958 0.886768,0.306958 0.328662,0 0.63562,-0.08061 0.310059,-0.08061 0.613916,-0.241846 v 0.539502 q -0.306958,0.130225 -0.629419,0.198438 -0.322461,0.06821 -0.654223,0.06821 -0.830957,0 -1.317749,-0.483692 -0.483692,-0.483691 -0.483692,-1.308447 0,-0.852661 0.458887,-1.351856 0.461987,-0.502294 1.243335,-0.502294 0.700732,0 1.106909,0.452685 0.409277,0.449585 0.409277,1.224731 z m -0.570508,-0.167431 q -0.0062,-0.468189 -0.263549,-0.747241 -0.254248,-0.279053 -0.675928,-0.279053 -0.47749,0 -0.765845,0.269751 -0.285254,0.269751 -0.328662,0.759643 z m 2.071192,-2.412256 v 0.985986 h 1.175122 v 0.443384 h -1.175122 v 1.885156 q 0,0.424781 0.114722,0.545703 0.117822,0.120923 0.474389,0.120923 h 0.586011 v 0.477491 h -0.586011 q -0.660425,0 -0.911572,-0.244947 -0.251147,-0.248047 -0.251147,-0.89917 v -1.885156 h -0.41858 v -0.443384 h 0.41858 v -0.985986 z"
         id="path2" />
      <path
         style="stroke:#000000"
         d="m 4.2928606,20.260944 v 3.59978 h 0.7565429 q 0.9580811,0 1.4014649,-0.434082 0.4464843,-0.434082 0.4464843,-1.370459 0,-0.930175 -0.4464843,-1.361157 Q 6.0074846,20.260944 5.0494035,20.260944 Z M 3.6665422,19.746247 h 1.2867432 q 1.3456543,0 1.9750732,0.561206 0.6294189,0.558105 0.6294189,1.74873 0,1.196826 -0.6325195,1.758032 -0.6325195,0.561207 -1.9719726,0.561207 H 3.6665422 Z m 7.8351808,2.750219 v 0.279053 H 8.8786273 q 0.037207,0.589112 0.3534668,0.89917 0.3193603,0.306958 0.8867679,0.306958 0.328662,0 0.63562,-0.08061 0.310058,-0.08062 0.613916,-0.241846 v 0.539502 q -0.306958,0.130225 -0.629419,0.198438 -0.322461,0.06821 -0.654224,0.06821 -0.8309568,0 -1.3177488,-0.483692 -0.4836914,-0.483691 -0.4836914,-1.308447 0,-0.852661 0.4588867,-1.351856 0.4619873,-0.502294 1.2433349,-0.502294 0.7007326,0 1.1069096,0.452685 0.409277,0.449585 0.409277,1.224731 z m -0.570508,-0.167431 q -0.0062,-0.468189 -0.26355,-0.747241 -0.254248,-0.279053 -0.6759274,-0.279053 -0.4774902,0 -0.7658447,0.269751 -0.2852539,0.269751 -0.3286621,0.759643 z m 1.506884,-2.778125 h 0.570508 v 4.824512 h -0.570508 z m 3.342432,3.078882 q -0.69143,0 -0.958081,0.15813 -0.26665,0.158129 -0.26665,0.539501 0,0.303858 0.198437,0.483692 0.201538,0.176733 0.545703,0.176733 0.47439,0 0.759644,-0.334863 0.288354,-0.337964 0.288354,-0.896069 v -0.127124 z m 1.137915,-0.235645 v 1.981275 h -0.570508 v -0.5271 q -0.195336,0.31626 -0.486791,0.468188 -0.291456,0.148829 -0.713135,0.148829 -0.533301,0 -0.849561,-0.297657 -0.313159,-0.300757 -0.313159,-0.803051 0,-0.586011 0.390674,-0.883667 0.393774,-0.297657 1.172021,-0.297657 h 0.799951 v -0.05581 q 0,-0.393775 -0.260449,-0.607715 -0.257348,-0.217041 -0.725537,-0.217041 -0.297656,0 -0.579809,0.07131 -0.282154,0.07131 -0.542603,0.213941 v -0.5271 q 0.313159,-0.120923 0.607715,-0.179834 0.294556,-0.06201 0.573608,-0.06201 0.753443,0 1.125513,0.390673 0.37207,0.390674 0.37207,1.184424 z m 2.619995,2.303735 q -0.241845,0.620118 -0.471289,0.809253 -0.229443,0.189136 -0.613916,0.189136 H 17.99745 v -0.47749 h 0.334864 q 0.235644,0 0.365869,-0.111621 0.130224,-0.111621 0.288354,-0.5271 l 0.102319,-0.260449 -1.404565,-3.416846 h 0.604614 l 1.085205,2.716114 1.085205,-2.716114 h 0.604615 z"
         id="path3" />
    </g>
    <rect
       style="display:inline;opacity:1;vector-effect:none;fill:#e6e6e6;fill-opacity:1;fill-rule:evenodd;stroke:none;stroke-width:0.649358;stroke-linecap:butt;stroke-linejoin:miter;stroke-miterlimit:4;stroke-dasharray:none;stroke-dashoffset:0;stroke-opacity:1;paint-order:normal"
       id="rect420"
       width="30.48"
       height="128.5"
       x="5.9211732e-17"
       y="168.49997"
       inkscape:label="Panel" />
    <path
       style="font-size:5.29167px;stroke:#000000;stroke-width:0.264583"
       d="m 4.2330463,117.86351 -0.7079676,1.91978 h 1.4185189 z m -0.2945559,-0.51418 h 0.5916955 l 1.4701954,3.85765 H 5.4577784 l -0.3513999,-0.98961 h -1.738913 l -0.3513999,0.98961 H 2.4657112 Z m 2.5554011,2.7156 V 118.3131 H 6.969315 v 1.73374 q 0,0.41083 0.160197,0.61753 0.160197,0.20413 0.4805911,0.20413 0.3849897,0 0.6071985,-0.24547 0.2247926,-0.24546 0.2247926,-0.66921 v -1.64072 h 0.4754234 v 2.89388 H 8.4420942 v -0.44442 q -0.1731162,0.26355 -0.4030764,0.39274 -0.2273765,0.12661 -0.5296838,0.12661 -0.4986779,0 -0.7570602,-0.31006 -0.2583823,-0.31006 -0.2583823,-0.90692 z m 1.1963101,-1.8216 z m 4.1108624,0.50902 v -1.5658 h 0.475424 v 4.02043 h -0.475424 v -0.43408 q -0.149861,0.25838 -0.379822,0.38499 -0.227376,0.12402 -0.54777,0.12402 -0.524516,0 -0.855246,-0.41858 -0.3281453,-0.41858 -0.3281453,-1.10071 0,-0.68213 0.3281453,-1.10071 0.33073,-0.41858 0.855246,-0.41858 0.320394,0 0.54777,0.12661 0.229961,0.12402 0.379822,0.38241 z m -1.620057,1.01027 q 0,0.52452 0.214457,0.82424 0.217042,0.29714 0.59428,0.29714 0.377238,0 0.594279,-0.29714 0.217041,-0.29972 0.217041,-0.82424 0,-0.52452 -0.217041,-0.82166 -0.217041,-0.29972 -0.594279,-0.29972 -0.377238,0 -0.59428,0.29972 -0.214457,0.29714 -0.214457,0.82166 z m 3.074749,-1.44952 h 0.475424 v 2.89388 h -0.475424 z m 0,-1.12655 h 0.475424 v 0.60203 h -0.475424 z m 2.591575,1.45986 q -0.382406,0 -0.604614,0.29972 -0.222209,0.29714 -0.222209,0.81649 0,0.51935 0.219625,0.81907 0.222209,0.29714 0.607198,0.29714 0.379822,0 0.602031,-0.29972 0.222209,-0.29972 0.222209,-0.81649 0,-0.51418 -0.222209,-0.8139 -0.222209,-0.30231 -0.602031,-0.30231 z m 0,-0.40308 q 0.620118,0 0.974102,0.40308 0.353983,0.40308 0.353983,1.11621 0,0.71055 -0.353983,1.11621 -0.353984,0.40308 -0.974102,0.40308 -0.622701,0 -0.976685,-0.40308 -0.3514,-0.40566 -0.3514,-1.11621 0,-0.71313 0.3514,-1.11621 0.353984,-0.40308 0.976685,-0.40308 z m 5.384688,-0.54002 q -0.568441,0 -0.904338,0.42375 -0.333313,0.42375 -0.333313,1.15497 0,0.72864 0.333313,1.15238 0.335897,0.42375 0.904338,0.42375 0.568441,0 0.89917,-0.42375 0.333314,-0.42374 0.333314,-1.15238 0,-0.73122 -0.333314,-1.15497 -0.330729,-0.42375 -0.89917,-0.42375 z m 0,-0.42374 q 0.81132,0 1.297079,0.54518 0.485759,0.54261 0.485759,1.45728 0,0.91209 -0.485759,1.45728 -0.485759,0.5426 -1.297079,0.5426 -0.813904,0 -1.302247,-0.5426 -0.485759,-0.54261 -0.485759,-1.45728 0,-0.91467 0.485759,-1.45728 0.488343,-0.54518 1.302247,-0.54518 z m 2.529563,2.78536 v -1.75183 h 0.475423 v 1.73374 q 0,0.41083 0.160197,0.61753 0.160197,0.20413 0.480592,0.20413 0.384989,0 0.607198,-0.24547 0.224793,-0.24546 0.224793,-0.66921 v -1.64072 h 0.475423 v 2.89388 h -0.475423 v -0.44442 q -0.173117,0.26355 -0.403077,0.39274 -0.227376,0.12661 -0.529684,0.12661 -0.498677,0 -0.75706,-0.31006 -0.258382,-0.31006 -0.258382,-0.90692 z m 1.19631,-1.8216 z m 2.67684,-0.75189 v 0.82166 h 0.979269 v 0.36948 h -0.979269 v 1.57097 q 0,0.35398 0.0956,0.45475 0.09819,0.10077 0.395325,0.10077 h 0.488342 v 0.39791 h -0.488342 q -0.550355,0 -0.759644,-0.20412 -0.20929,-0.20671 -0.20929,-0.74931 v -1.57097 h -0.348816 v -0.36948 h 0.348816 v -0.82166 z"
       id="text4-3-3"
       transform="translate(0,168.49998)"
       aria-label="Audio Out"
       inkscape:label="Audio_Out_Text" />
    <path
       style="font-size:5.29167px;stroke:#000000;stroke-width:0.264583"
       d="M 6.1958165,262.30922 5.4878489,264.229 h 1.418519 z m -0.2945559,-0.51418 h 0.5916956 l 1.4701953,3.85765 H 7.4205487 l -0.3514,-0.9896 h -1.738913 l -0.3513999,0.9896 H 4.4284814 Z m 2.5554011,2.7156 v -1.75183 h 0.4754235 v 1.73374 q 0,0.41083 0.160197,0.61754 0.1601971,0.20412 0.4805911,0.20412 0.3849897,0 0.6071987,-0.24546 0.224792,-0.24547 0.224792,-0.66921 v -1.64073 h 0.475424 v 2.89388 h -0.475424 v -0.44442 q -0.173116,0.26355 -0.403076,0.39274 -0.2273765,0.12661 -0.5296838,0.12661 -0.4986778,0 -0.7570602,-0.31006 -0.2583823,-0.31006 -0.2583823,-0.90692 z m 1.1963102,-1.8216 z m 4.1108621,0.50902 v -1.5658 h 0.475424 v 4.02043 h -0.475424 v -0.43408 q -0.149861,0.25838 -0.379822,0.38499 -0.227376,0.12402 -0.54777,0.12402 -0.524516,0 -0.855245,-0.41858 -0.328146,-0.41858 -0.328146,-1.10071 0,-0.68213 0.328146,-1.10071 0.330729,-0.41858 0.855245,-0.41858 0.320394,0 0.54777,0.12661 0.229961,0.12403 0.379822,0.38241 z m -1.620057,1.01027 q 0,0.52452 0.214458,0.82424 0.217041,0.29714 0.594279,0.29714 0.377238,0 0.594279,-0.29714 0.217041,-0.29972 0.217041,-0.82424 0,-0.52451 -0.217041,-0.82165 -0.217041,-0.29973 -0.594279,-0.29973 -0.377238,0 -0.594279,0.29973 -0.214458,0.29714 -0.214458,0.82165 z m 3.07475,-1.44952 h 0.475423 v 2.89388 h -0.475423 z m 0,-1.12655 h 0.475423 v 0.60203 h -0.475423 z m 2.591575,1.45986 q -0.382406,0 -0.604615,0.29972 -0.222209,0.29714 -0.222209,0.81649 0,0.51935 0.219625,0.81907 0.222209,0.29714 0.607199,0.29714 0.379822,0 0.60203,-0.29972 0.222209,-0.29972 0.222209,-0.81649 0,-0.51418 -0.222209,-0.8139 -0.222208,-0.30231 -0.60203,-0.30231 z m 0,-0.40308 q 0.620117,0 0.974101,0.40308 0.353984,0.40308 0.353984,1.11621 0,0.71055 -0.353984,1.11621 -0.353984,0.40308 -0.974101,0.40308 -0.622702,0 -0.976686,-0.40308 -0.3514,-0.40566 -0.3514,-1.11621 0,-0.71313 0.3514,-1.11621 0.353984,-0.40308 0.976686,-0.40308 z m 3.81889,-0.894 h 0.521933 v 3.85765 h -0.521933 z m 3.945498,2.11099 v 1.74666 h -0.475423 v -1.73116 q 0,-0.41083 -0.160197,-0.61495 -0.160197,-0.20412 -0.480592,-0.20412 -0.384989,0 -0.607198,0.24546 -0.222209,0.24546 -0.222209,0.66921 v 1.63556 h -0.478007 v -2.89388 h 0.478007 v 0.44958 q 0.170533,-0.26096 0.400493,-0.39015 0.232544,-0.1292 0.534851,-0.1292 0.498678,0 0.754477,0.31006 0.255798,0.30748 0.255798,0.90693 z"
       id="text4-3"
       aria-label="Audio In"
       inkscape:label="Audio_In_Text" />
    <circle
       style="display:inline;opacity:1;vector-effect:none;fill:#0000ff;fill-opacity:1;fill-rule:evenodd;stroke:none;stroke-width:1;stroke-linecap:butt;stroke-linejoin:miter;stroke-miterlimit:4;stroke-dasharray:none;stroke-dashoffset:0;stroke-opacity:1;paint-order:normal"
       id="circle4958"
       cx="15.24"
       cy="108.71259"
       r="4"
       transform="translate(0,168.49998)"
       inkscape:label="Audio_Out" />
    <circle
       r="4"
       cy="251.49997"
       cx="15.24"
       id="circle4956"
       style="display:inline;opacity:1;vector-effect:none;fill:#00ff00;fill-opacity:1;fill-rule:evenodd;stroke:none;stroke-width:1;stroke-linecap:butt;stroke-linejoin:miter;stroke-miterlimit:4;stroke-dasharray:none;stroke-dashoffset:0;stroke-opacity:1;paint-order:normal"
       inkscape:label="Audio_In" />
    <path
       style="font-size:4.93889px;fill:#003800;stroke-width:0.264583"
       d="m 3.0555835,212.71132 v 1.35289 h 0.6125381 q 0.340031,0 0.5257217,-0.17605 0.1856907,-0.17604 0.1856907,-0.5016 0,-0.32315 -0.1856907,-0.4992 -0.1856907,-0.17604 -0.5257217,-0.17604 z M 2.5684469,212.311 h 1.0996747 q 0.6053035,0 0.9139841,0.27492 0.3110922,0.2725 0.3110922,0.80064 0,0.53295 -0.3110922,0.80546 -0.3086806,0.27251 -0.9139841,0.27251 H 3.0555835 v 1.44694 H 2.5684469 Z m 3.9646168,2.24276 q -0.5377795,0 -0.7451743,0.12299 -0.2073948,0.12299 -0.2073948,0.41961 0,0.23633 0.1543403,0.3762 0.1567519,0.13746 0.4244359,0.13746 0.3689698,0 0.590834,-0.26045 0.2242758,-0.26286 0.2242758,-0.69694 v -0.0989 z m 0.8850453,-0.18328 v 1.54099 H 6.9743806 v -0.40997 q -0.1519288,0.24598 -0.3786161,0.36415 -0.2266873,0.11575 -0.5546605,0.11575 -0.4147896,0 -0.6607695,-0.23151 -0.2435683,-0.23392 -0.2435683,-0.62459 0,-0.45579 0.3038575,-0.6873 0.3062691,-0.23151 0.9115725,-0.23151 h 0.6221844 v -0.0434 q 0,-0.30627 -0.2025717,-0.47267 -0.2001601,-0.1688 -0.5643068,-0.1688 -0.2315104,0 -0.4509631,0.0555 -0.2194526,0.0555 -0.4220242,0.1664 v -0.40997 q 0.2435683,-0.094 0.4726672,-0.13987 0.2290989,-0.0482 0.4461399,-0.0482 0.5860109,0 0.875399,0.30386 0.2893881,0.30386 0.2893881,0.92122 z m 2.4790916,-0.74518 q -0.074759,-0.0434 -0.1639866,-0.0627 -0.086816,-0.0217 -0.1929254,-0.0217 -0.3762045,0 -0.5787762,0.24598 -0.2001601,0.24357 -0.2001601,0.70176 v 1.42283 H 8.3152124 v -2.70096 h 0.4461399 v 0.41962 q 0.1398709,-0.24598 0.3641467,-0.36415 0.2242758,-0.12058 0.5450142,-0.12058 0.04582,0 0.1012859,0.007 0.055466,0.005 0.1229899,0.0169 z m 1.6929204,0.92846 q -0.53778,0 -0.745175,0.12299 -0.207394,0.12299 -0.207394,0.41961 0,0.23633 0.15434,0.3762 0.156752,0.13746 0.424436,0.13746 0.36897,0 0.590834,-0.26045 0.224275,-0.26286 0.224275,-0.69694 v -0.0989 z m 0.885045,-0.18328 v 1.54099 h -0.443729 v -0.40997 q -0.151928,0.24598 -0.378616,0.36415 -0.226687,0.11575 -0.55466,0.11575 -0.41479,0 -0.66077,-0.23151 -0.243568,-0.23392 -0.243568,-0.62459 0,-0.45579 0.303858,-0.6873 0.306269,-0.23151 0.911572,-0.23151 h 0.622184 v -0.0434 q 0,-0.30627 -0.202571,-0.47267 -0.20016,-0.1688 -0.564307,-0.1688 -0.23151,0 -0.450963,0.0555 -0.219453,0.0555 -0.422024,0.1664 v -0.40997 q 0.243568,-0.094 0.472667,-0.13987 0.229099,-0.0482 0.44614,-0.0482 0.586011,0 0.875399,0.30386 0.289388,0.30386 0.289388,0.92122 z m 3.016871,-0.64148 q 0.166398,-0.29903 0.397908,-0.44132 0.231511,-0.14228 0.545014,-0.14228 0.422025,0 0.651124,0.29662 0.229098,0.29421 0.229098,0.83923 v 1.63022 h -0.44614 v -1.61575 q 0,-0.38826 -0.137459,-0.57637 -0.137459,-0.1881 -0.419613,-0.1881 -0.344854,0 -0.545014,0.2291 -0.20016,0.2291 -0.20016,0.6246 v 1.52652 h -0.44614 v -1.61575 q 0,-0.39068 -0.137459,-0.57637 -0.13746,-0.1881 -0.424436,-0.1881 -0.340031,0 -0.540191,0.23151 -0.20016,0.2291 -0.20016,0.62219 v 1.52652 h -0.44614 v -2.70096 h 0.44614 v 0.41962 q 0.151929,-0.2484 0.364146,-0.36656 0.212218,-0.11817 0.504018,-0.11817 0.294211,0 0.499194,0.14952 0.207395,0.14952 0.30627,0.43408 z m 5.758822,-1.08762 q -0.530544,0 -0.844048,0.3955 -0.311092,0.3955 -0.311092,1.07797 0,0.68006 0.311092,1.07556 0.313504,0.3955 0.844048,0.3955 0.530545,0 0.839226,-0.3955 0.311092,-0.3955 0.311092,-1.07556 0,-0.68247 -0.311092,-1.07797 -0.308681,-0.3955 -0.839226,-0.3955 z m 0,-0.39549 q 0.757232,0 1.210607,0.50884 0.453375,0.50643 0.453375,1.36012 0,0.85128 -0.453375,1.36012 -0.453375,0.50643 -1.210607,0.50643 -0.759643,0 -1.21543,-0.50643 -0.453374,-0.50642 -0.453374,-1.36012 0,-0.85369 0.453374,-1.36012 0.455787,-0.50884 1.21543,-0.50884 z m 4.651915,2.03536 v 1.63022 h -0.443729 v -1.61575 q 0,-0.38344 -0.149517,-0.57395 -0.149517,-0.19052 -0.448552,-0.19052 -0.359323,0 -0.566718,0.2291 -0.207395,0.2291 -0.207395,0.6246 v 1.52652 h -0.44614 v -2.70096 h 0.44614 v 0.41962 q 0.159164,-0.24357 0.373793,-0.36415 0.217041,-0.12058 0.499195,-0.12058 0.465432,0 0.704177,0.28939 0.238746,0.28698 0.238746,0.84646 z m 3.195327,0.16881 v 0.21704 h -2.040186 q 0.02894,0.4582 0.274918,0.69935 0.248392,0.23875 0.689709,0.23875 0.255626,0 0.494371,-0.0627 0.241157,-0.0627 0.47749,-0.1881 v 0.41961 q -0.238745,0.10128 -0.489548,0.15434 -0.250803,0.0531 -0.508841,0.0531 -0.6463,0 -1.024916,-0.3762 -0.376204,-0.37621 -0.376204,-1.01768 0,-0.66318 0.356912,-1.05145 0.359323,-0.39067 0.967038,-0.39067 0.545014,0 0.86093,0.35209 0.318327,0.34968 0.318327,0.95257 z m -0.443729,-0.13023 q -0.0048,-0.36414 -0.204983,-0.58118 -0.197749,-0.21704 -0.525722,-0.21704 -0.371381,0 -0.595657,0.2098 -0.221864,0.20981 -0.255626,0.59084 z"
       id="text5"
       inkscape:label="Param_Two_Text"
       aria-label="Param One" />
    <circle
       style="fill:#00ff00;fill-opacity:1;stroke:none;stroke-width:0.264583"
       id="path4-6-3"
       cx="23.506834"
       cy="229.81311"
       r="3.9276602"
       inkscape:label="Param_Two_CV" />
    <circle
       style="fill:#ff0000;fill-opacity:1;stroke:none;stroke-width:0.264583"
       id="path4-6"
       cx="9.1023808"
       cy="229.81348"
       r="3.9276602"
       inkscape:label="Param_Two" />
    <path
       style="font-size:4.93889px;fill:#003800;stroke-width:0.264583"
       d="m 3.4601088,236.89052 v 1.35289 h 0.6125381 q 0.340031,0 0.5257217,-0.17605 0.1856907,-0.17604 0.1856907,-0.5016 0,-0.32315 -0.1856907,-0.4992 -0.1856907,-0.17604 -0.5257217,-0.17604 z M 2.9729722,236.4902 h 1.0996747 q 0.6053034,0 0.9139841,0.27492 0.3110921,0.2725 0.3110921,0.80064 0,0.53295 -0.3110921,0.80546 -0.3086807,0.27251 -0.9139841,0.27251 H 3.4601088 v 1.44694 H 2.9729722 Z m 3.9646168,2.24276 q -0.5377795,0 -0.7451743,0.12299 -0.2073948,0.12299 -0.2073948,0.41961 0,0.23633 0.1543403,0.3762 0.1567519,0.13746 0.4244359,0.13746 0.3689698,0 0.590834,-0.26045 0.2242757,-0.26286 0.2242757,-0.69694 v -0.0989 z m 0.8850452,-0.18328 v 1.54099 H 7.3789058 v -0.40997 q -0.1519287,0.24598 -0.378616,0.36415 -0.2266874,0.11575 -0.5546605,0.11575 -0.4147896,0 -0.6607695,-0.23151 -0.2435683,-0.23392 -0.2435683,-0.62459 0,-0.45579 0.3038575,-0.6873 0.3062691,-0.23151 0.9115725,-0.23151 h 0.6221843 v -0.0434 q 0,-0.30627 -0.2025716,-0.47267 -0.2001601,-0.16881 -0.5643068,-0.16881 -0.2315104,0 -0.4509631,0.0555 -0.2194526,0.0555 -0.4220243,0.1664 v -0.40997 q 0.2435683,-0.094 0.4726672,-0.13987 0.2290989,-0.0482 0.44614,-0.0482 0.5860109,0 0.875399,0.30386 0.289388,0.30385 0.289388,0.92122 z m 2.4790918,-0.74518 q -0.07476,-0.0434 -0.163987,-0.0627 -0.08682,-0.0217 -0.1929251,-0.0217 -0.3762045,0 -0.5787762,0.24598 -0.2001601,0.24357 -0.2001601,0.70176 v 1.42283 h -0.44614 v -2.70096 h 0.44614 v 0.41961 q 0.1398709,-0.24597 0.3641467,-0.36414 0.2242757,-0.12058 0.5450147,-0.12058 0.04582,0 0.101285,0.007 0.05547,0.005 0.12299,0.0169 z m 1.69292,0.92846 q -0.53778,0 -0.745174,0.12299 -0.207395,0.12299 -0.207395,0.41961 0,0.23633 0.15434,0.3762 0.156752,0.13746 0.424436,0.13746 0.36897,0 0.590834,-0.26045 0.224276,-0.26286 0.224276,-0.69694 v -0.0989 z m 0.885045,-0.18328 v 1.54099 h -0.443728 v -0.40997 q -0.151929,0.24598 -0.378616,0.36415 -0.226688,0.11575 -0.554661,0.11575 -0.414789,0 -0.660769,-0.23151 -0.243569,-0.23392 -0.243569,-0.62459 0,-0.45579 0.303858,-0.6873 0.306269,-0.23151 0.911572,-0.23151 h 0.622185 v -0.0434 q 0,-0.30627 -0.202572,-0.47267 -0.20016,-0.16881 -0.564307,-0.16881 -0.23151,0 -0.450963,0.0555 -0.219452,0.0555 -0.422024,0.1664 v -0.40997 q 0.243568,-0.094 0.472667,-0.13987 0.229099,-0.0482 0.44614,-0.0482 0.586011,0 0.875399,0.30386 0.289388,0.30385 0.289388,0.92122 z m 3.016871,-0.64148 q 0.166398,-0.29904 0.397908,-0.44132 0.231511,-0.14228 0.545015,-0.14228 0.422024,0 0.651123,0.29662 0.229099,0.29421 0.229099,0.83923 v 1.63022 h -0.44614 v -1.61575 q 0,-0.38826 -0.13746,-0.57637 -0.137459,-0.1881 -0.419612,-0.1881 -0.344854,0 -0.545015,0.2291 -0.20016,0.2291 -0.20016,0.6246 v 1.52652 h -0.44614 v -1.61575 q 0,-0.39068 -0.137459,-0.57637 -0.137459,-0.1881 -0.424436,-0.1881 -0.340031,0 -0.540191,0.23151 -0.20016,0.2291 -0.20016,0.62219 v 1.52652 h -0.44614 v -2.70096 h 0.44614 v 0.41961 q 0.151929,-0.24839 0.364147,-0.36655 0.212218,-0.11817 0.504017,-0.11817 0.294212,0 0.499195,0.14952 0.207395,0.14951 0.306269,0.43408 z m 3.798218,-1.418 h 3.04581 v 0.40996 h -1.278131 v 3.19051 h -0.489548 v -3.19051 H 19.69478 Z m 2.421215,0.89951 h 0.443728 l 0.554661,2.10771 0.552249,-2.10771 h 0.52331 l 0.55466,2.10771 0.552249,-2.10771 h 0.443729 l -0.70659,2.70096 h -0.52331 l -0.581187,-2.21382 -0.5836,2.21382 h -0.52331 z m 5.344033,0.31109 q -0.356912,0 -0.564307,0.27975 -0.207394,0.27733 -0.207394,0.76205 0,0.48473 0.204983,0.76447 0.207395,0.27733 0.566718,0.27733 0.354501,0 0.561895,-0.27974 0.207395,-0.27974 0.207395,-0.76206 0,-0.4799 -0.207395,-0.75964 -0.207394,-0.28216 -0.561895,-0.28216 z m 0,-0.3762 q 0.578776,0 0.909161,0.3762 0.330385,0.37621 0.330385,1.0418 0,0.66318 -0.330385,1.0418 -0.330385,0.3762 -0.909161,0.3762 -0.581188,0 -0.911572,-0.3762 -0.327973,-0.37862 -0.327973,-1.0418 0,-0.66559 0.327973,-1.0418 0.330384,-0.3762 0.911572,-0.3762 z"
       id="text5-6"
       inkscape:label="Param_One_Text"
       aria-label="Param Two" />
    <circle
       style="fill:#00ff00;fill-opacity:1;stroke:none;stroke-width:0.264583"
       id="path4-5"
       cx="23.634739"
       cy="205.68115"
       r="3.9276602"
       inkscape:label="Param_One_CV" />
    <circle
       style="fill:#ff0000;fill-opacity:1;stroke:none;stroke-width:0.264583"
       id="path4"
       cx="9.2302847"
       cy="205.6813"
       r="3.9276602"
       inkscape:label="Param_One" />
    <g
       id="text6"
       style="font-size:6.35px;fill:#003800;stroke-width:0.264583"
       inkscape:label="Title"
       aria-label="My&#10;Sweet&#10;Delay">
      <path
         style="fill:none;stroke:#000000"
         d="m 2.6584165,171.17043 h 0.9332763 l 1.1813232,3.1502 1.1875244,-3.1502 h 0.9332764 v 4.62918 H 6.2830014 v -4.06487 l -1.1937256,3.175 H 4.4598569 l -1.1937256,-3.175 v 4.06487 H 2.6584165 Z m 6.8988037,4.95164 q -0.2418457,0.62011 -0.471289,0.80925 -0.2294434,0.18914 -0.613916,0.18914 H 8.016229 v -0.47749 h 0.3348633 q 0.2356446,0 0.3658692,-0.11163 0.1302246,-0.11162 0.2883544,-0.5271 l 0.1023194,-0.26044 -1.4045654,-3.41685 h 0.6046142 l 1.0852051,2.71611 1.0852048,-2.71611 h 0.604614 z"
         id="path8" />
      <path
         style="fill:none;stroke:#000000"
         d="m 5.4334408,179.25986 v 0.61082 q -0.3565674,-0.17054 -0.6728271,-0.25425 -0.3162598,-0.0837 -0.6108154,-0.0837 -0.5115967,0 -0.7906494,0.19844 -0.2759522,0.19844 -0.2759522,0.56431 0,0.30695 0.1829346,0.46508 0.1860351,0.15503 0.7007324,0.25115 l 0.3782715,0.0775 q 0.7007324,0.13332 1.0324951,0.47128 0.3348633,0.33487 0.3348633,0.89917 0,0.67283 -0.4526856,1.0201 -0.4495849,0.34726 -1.3208496,0.34726 -0.3286621,0 -0.7007324,-0.0744 -0.3689697,-0.0744 -0.7658447,-0.22014 v -0.64492 q 0.3813721,0.21394 0.7472412,0.32246 0.3658691,0.10852 0.7193359,0.10852 0.5364014,0 0.8278565,-0.21084 0.291455,-0.21084 0.291455,-0.60152 0,-0.34106 -0.2108398,-0.5333 -0.2077393,-0.19223 -0.6852295,-0.28835 l -0.3813721,-0.0744 q -0.7007324,-0.13952 -1.0138915,-0.43718 -0.3131592,-0.29765 -0.3131592,-0.82785 0,-0.61392 0.4309814,-0.96739 0.434082,-0.35346 1.1937256,-0.35346 0.3255615,0 0.6635254,0.0589 0.3379638,0.0589 0.6914306,0.17673 z m 0.89917,1.00459 h 0.5705078 l 0.7131348,2.70991 0.7100341,-2.70991 h 0.6728272 l 0.7131347,2.70991 0.7100346,-2.70991 h 0.570507 l -0.908471,3.47266 H 9.4114926 l -0.7472412,-2.84634 -0.7503418,2.84634 H 7.2410825 Z m 8.4956052,1.5937 v 0.27905 h -2.623095 q 0.03721,0.58912 0.353466,0.89917 0.319361,0.30696 0.886768,0.30696 0.328662,0 0.63562,-0.0806 0.310059,-0.0806 0.613916,-0.24185 v 0.5395 q -0.306958,0.13023 -0.629419,0.19844 -0.322461,0.0682 -0.654224,0.0682 -0.830957,0 -1.317749,-0.48369 -0.483691,-0.48369 -0.483691,-1.30845 0,-0.85266 0.458887,-1.35185 0.461987,-0.5023 1.243335,-0.5023 0.700732,0 1.106909,0.45269 0.409277,0.44958 0.409277,1.22473 z m -0.570508,-0.16743 q -0.0062,-0.46819 -0.263549,-0.74724 -0.254248,-0.27905 -0.675928,-0.27905 -0.47749,0 -0.765845,0.26975 -0.285254,0.26975 -0.328662,0.75964 z m 4.477246,0.16743 v 0.27905 h -2.623095 q 0.03721,0.58912 0.353467,0.89917 0.31936,0.30696 0.886767,0.30696 0.328662,0 0.63562,-0.0806 0.310059,-0.0806 0.613916,-0.24185 v 0.5395 q -0.306958,0.13023 -0.629419,0.19844 -0.322461,0.0682 -0.654223,0.0682 -0.830957,0 -1.317749,-0.48369 -0.483692,-0.48369 -0.483692,-1.30845 0,-0.85266 0.458887,-1.35185 0.461987,-0.5023 1.243335,-0.5023 0.700732,0 1.106909,0.45269 0.409277,0.44958 0.409277,1.22473 z m -0.570507,-0.16743 q -0.0062,-0.46819 -0.26355,-0.74724 -0.254248,-0.27905 -0.675928,-0.27905 -0.47749,0 -0.765845,0.26975 -0.285253,0.26975 -0.328662,0.75964 z m 2.071191,-2.41226 v 0.98599 h 1.175122 v 0.44338 h -1.175122 v 1.88516 q 0,0.42478 0.114722,0.5457 0.117822,0.12093 0.474389,0.12093 h 0.586011 v 0.47749 h -0.586011 q -0.660424,0 -0.911572,-0.24495 -0.251147,-0.24805 -0.251147,-0.89917 v -1.88516 h -0.418579 v -0.44338 h 0.418579 v -0.98599 z"
         id="path9" />
      <path
         style="fill:none;stroke:#000000"
         d="m 3.2847348,187.56013 v 3.59978 h 0.756543 q 0.958081,0 1.4014648,-0.43408 0.4464844,-0.43409 0.4464844,-1.37046 0,-0.93018 -0.4464844,-1.36116 -0.4433838,-0.43408 -1.4014648,-0.43408 z m -0.6263183,-0.5147 h 1.2867431 q 1.3456543,0 1.9750732,0.56121 0.6294189,0.5581 0.6294189,1.74873 0,1.19682 -0.6325195,1.75803 -0.6325195,0.56121 -1.9719726,0.56121 H 2.6584165 Z m 7.8351805,2.75022 v 0.27905 H 7.8705015 q 0.037207,0.58912 0.3534668,0.89917 0.3193603,0.30696 0.8867676,0.30696 0.3286621,0 0.6356201,-0.0806 0.310059,-0.0806 0.613916,-0.24185 v 0.5395 q -0.306958,0.13023 -0.629419,0.19844 -0.3224609,0.0682 -0.6542236,0.0682 -0.830957,0 -1.317749,-0.48369 -0.4836914,-0.48369 -0.4836914,-1.30845 0,-0.85266 0.4588867,-1.35185 0.4619873,-0.5023 1.243335,-0.5023 0.7007324,0 1.1069093,0.45269 0.409277,0.44958 0.409277,1.22473 z m -0.5705076,-0.16743 q -0.0062,-0.46819 -0.2635498,-0.74724 -0.2542481,-0.27905 -0.6759278,-0.27905 -0.4774902,0 -0.7658447,0.26975 -0.2852539,0.26975 -0.3286621,0.75964 z m 1.5068846,-2.77813 h 0.570507 v 4.82452 h -0.570507 z m 3.342431,3.07889 q -0.69143,0 -0.958081,0.15813 -0.26665,0.15813 -0.26665,0.5395 0,0.30386 0.198438,0.48369 0.201538,0.17673 0.545703,0.17673 0.474389,0 0.759643,-0.33486 0.288355,-0.33796 0.288355,-0.89607 v -0.12712 z m 1.137916,-0.23565 v 1.98128 h -0.570508 v -0.5271 q -0.195337,0.31626 -0.486792,0.46818 -0.291455,0.14883 -0.713135,0.14883 -0.533301,0 -0.849561,-0.29765 -0.313159,-0.30076 -0.313159,-0.80305 0,-0.58602 0.390674,-0.88367 0.393774,-0.29766 1.172022,-0.29766 h 0.799951 v -0.0558 q 0,-0.39377 -0.26045,-0.60771 -0.257348,-0.21704 -0.725537,-0.21704 -0.297656,0 -0.579809,0.0713 -0.282153,0.0713 -0.542603,0.21394 v -0.5271 q 0.313159,-0.12092 0.607715,-0.17983 0.294556,-0.062 0.573609,-0.062 0.753442,0 1.125512,0.39068 0.372071,0.39067 0.372071,1.18442 z m 2.619995,2.30374 q -0.241846,0.62011 -0.471289,0.80925 -0.229444,0.18914 -0.613916,0.18914 h -0.455787 v -0.47749 h 0.334864 q 0.235644,0 0.365869,-0.11163 0.130224,-0.11162 0.288354,-0.5271 l 0.10232,-0.26044 -1.404566,-3.41685 h 0.604615 l 1.085205,2.71611 1.085205,-2.71611 h 0.604614 z"
         id="path10" />
    </g>
  </g>
</svg>
