<?xml version="1.0" encoding="UTF-8" standalone="no"?>
<!-- Created with Inkscape (http://www.inkscape.org/) -->

<svg
   width="30.48mm"
   height="128.5mm"
   viewBox="0 0 30.480002 128.50002"
   version="1.1"
   id="svg8"
   inkscape:version="1.3.2 (091e20e, 2023-11-25)"
   sodipodi:docname="mod5.svg"
   xml:space="preserve"
   xmlns:inkscape="http://www.inkscape.org/namespaces/inkscape"
   xmlns:sodipodi="http://sodipodi.sourceforge.net/DTD/sodipodi-0.dtd"
   xmlns="http://www.w3.org/2000/svg"
   xmlns:svg="http://www.w3.org/2000/svg"
   xmlns:rdf="http://www.w3.org/1999/02/22-rdf-syntax-ns#"
   xmlns:cc="http://creativecommons.org/ns#"
   xmlns:dc="http://purl.org/dc/elements/1.1/"><defs
     id="defs2"><linearGradient
       id="path5815_1_"
       gradientUnits="userSpaceOnUse"
       x1="7.0002298"
       y1="1.33285"
       x2="7.0002298"
       y2="10.17937">
		<stop
   offset="0.00559"
   style="stop-color:#3D3B3B"
   id="stop3" />
		<stop
   offset="1"
   style="stop-color:#2D2C2C"
   id="stop4" />
	</linearGradient><linearGradient
       id="path5805_1_"
       gradientUnits="userSpaceOnUse"
       x1="6.9992099"
       y1="1.33285"
       x2="6.9992099"
       y2="19.459539">
			<stop
   offset="0"
   style="stop-color:#3B3B3B"
   id="stop1" />
			<stop
   offset="1"
   style="stop-color:#242424"
   id="stop2" />
		</linearGradient><linearGradient
       id="path5805_1_-8"
       gradientUnits="userSpaceOnUse"
       x1="6.9992099"
       y1="1.33285"
       x2="6.9992099"
       y2="19.459539">
			<stop
   offset="0"
   style="stop-color:#3B3B3B"
   id="stop1-7" />
			<stop
   offset="1"
   style="stop-color:#242424"
   id="stop2-0" />
		</linearGradient><linearGradient
       id="path5815_2_"
       gradientUnits="userSpaceOnUse"
       x1="6.9992099"
       y1="10.61302"
       x2="6.9992099"
       y2="19.459539">
		<stop
   offset="0.00559"
   style="stop-color:#3D3B3B"
   id="stop3-3" />
		<stop
   offset="1"
   style="stop-color:#2D2C2C"
   id="stop4-6" />
	</linearGradient></defs><sodipodi:namedview
     id="base"
     pagecolor="#ffffff"
     bordercolor="#666666"
     borderopacity="1.0"
     inkscape:pageopacity="0.0"
     inkscape:pageshadow="2"
     inkscape:zoom="1.0637453"
     inkscape:cx="43.713473"
     inkscape:cy="245.82953"
     inkscape:document-units="mm"
     inkscape:current-layer="layer1"
     showgrid="false"
     units="mm"
     inkscape:snap-bbox="true"
     inkscape:snap-page="true"
     inkscape:bbox-nodes="false"
     inkscape:snap-bbox-edge-midpoints="false"
     inkscape:window-width="1600"
     inkscape:window-height="900"
     inkscape:window-x="63"
     inkscape:window-y="161"
     inkscape:window-maximized="0"
     inkscape:snap-bbox-midpoints="true"
     inkscape:snap-nodes="false"
     inkscape:showpageshadow="2"
     inkscape:pagecheckerboard="0"
     inkscape:deskcolor="#d1d1d1" /><metadata
     id="metadata5"><rdf:RDF><cc:Work
         rdf:about=""><dc:format>image/svg+xml</dc:format><dc:type
           rdf:resource="http://purl.org/dc/dcmitype/StillImage" /></cc:Work></rdf:RDF></metadata><g
     inkscape:label="Layer 1"
     inkscape:groupmode="layer"
     id="layer1"
     transform="translate(0,-168.49998)"
     style="display:inline"><rect
       style="display:inline;opacity:1;vector-effect:none;fill:#e6e6e6;fill-opacity:1;fill-rule:evenodd;stroke:none;stroke-width:0.649358;stroke-linecap:butt;stroke-linejoin:miter;stroke-miterlimit:4;stroke-dasharray:none;stroke-dashoffset:0;stroke-opacity:1;paint-order:normal"
       id="rect420"
       width="30.48"
       height="128.5"
       x="5.9211732e-17"
       y="168.48889"
       inkscape:label="rect420" /><rect
       style="display:inline;fill:#1a1a1a;stroke-width:0.305041"
       id="rect2"
       width="28.073357"
       height="18.448208"
       x="1.2031438"
       y="273.37402"
       inkscape:label="rect2"
       ry="1.8" /><path
       d="m 9.9035793,199.39718 q 0,0.26337 -0.08148,0.47938 -0.07958,0.21601 -0.210323,0.35623 -0.136426,0.14779 -0.3088537,0.22358 -0.172427,0.0758 -0.3694857,0.0758 -0.181902,0 -0.308854,-0.0398 -0.126951,-0.0379 -0.2595878,-0.108 v 0.88677 H 7.6828684 v -2.90853 h 0.6821297 v 0.2217 q 0.1572688,-0.12506 0.3202218,-0.20275 0.164848,-0.0777 0.3789607,-0.0777 0.397909,0 0.6177057,0.2918 0.221693,0.2918 0.221693,0.80151 z m -0.7029727,0.0133 q 0,-0.31075 -0.106109,-0.45096 -0.106109,-0.14022 -0.3353797,-0.14022 -0.09663,0 -0.198955,0.0303 -0.102319,0.0284 -0.1951648,0.0834 v 1.07056 q 0.068213,0.0265 0.1458998,0.0341 0.07769,0.008 0.153479,0.008 0.270957,0 0.4035937,-0.15727 0.132636,-0.15916 0.132636,-0.47749 z m 2.4840884,0.52486 v -0.44338 q -0.138321,0.0114 -0.299379,0.0322 -0.161059,0.0189 -0.24443,0.0455 -0.102319,0.0322 -0.157269,0.0947 -0.05305,0.0606 -0.05305,0.16106 0,0.0663 0.01137,0.10801 0.01137,0.0417 0.05684,0.0796 0.04358,0.0379 0.104214,0.0568 0.06063,0.0171 0.18948,0.0171 0.10232,0 0.206534,-0.0417 0.106109,-0.0417 0.185691,-0.1099 z m 0,0.3297 q -0.05495,0.0417 -0.136426,0.10042 -0.08148,0.0587 -0.153479,0.0928 -0.100425,0.0455 -0.208429,0.0663 -0.108004,0.0227 -0.23685,0.0227 -0.303169,0 -0.507808,-0.18758 -0.204639,-0.18759 -0.204639,-0.47939 0,-0.23306 0.104214,-0.38085 0.104215,-0.1478 0.29559,-0.23307 0.18948,-0.0853 0.469912,-0.12126 0.280431,-0.036 0.581705,-0.0531 v -0.0114 q 0,-0.17621 -0.144006,-0.24253 -0.144005,-0.0682 -0.424436,-0.0682 -0.168637,0 -0.360013,0.0606 -0.191375,0.0587 -0.274746,0.0909 h -0.06253 v -0.51349 q 0.108004,-0.0284 0.350539,-0.0663 0.24443,-0.0398 0.48886,-0.0398 0.581705,0 0.839398,0.18001 0.259588,0.17811 0.259588,0.56086 v 1.44763 h -0.676445 z m 2.845997,-1.25247 h -0.06063 q -0.04358,-0.0152 -0.140215,-0.0227 -0.09664,-0.008 -0.161059,-0.008 -0.1459,0 -0.257693,0.0189 -0.111794,0.0189 -0.240641,0.0644 v 1.42489 h -0.682129 v -2.12787 h 0.682129 v 0.31265 q 0.225482,-0.19327 0.392225,-0.2558 0.166743,-0.0644 0.306958,-0.0644 0.036,0 0.08148,0.002 0.04547,0.002 0.07958,0.006 z m 1.675007,0.92277 v -0.44338 q -0.138321,0.0114 -0.299379,0.0322 -0.161059,0.0189 -0.24443,0.0455 -0.10232,0.0322 -0.157269,0.0947 -0.05306,0.0606 -0.05306,0.16106 0,0.0663 0.01137,0.10801 0.01137,0.0417 0.05684,0.0796 0.04358,0.0379 0.104215,0.0568 0.06063,0.0171 0.18948,0.0171 0.10232,0 0.206534,-0.0417 0.106109,-0.0417 0.185691,-0.1099 z m 0,0.3297 q -0.05495,0.0417 -0.136426,0.10042 -0.08148,0.0587 -0.153479,0.0928 -0.100425,0.0455 -0.208429,0.0663 -0.108004,0.0227 -0.23685,0.0227 -0.303169,0 -0.507808,-0.18758 -0.204639,-0.18759 -0.204639,-0.47939 0,-0.23306 0.104214,-0.38085 0.104214,-0.1478 0.29559,-0.23307 0.18948,-0.0853 0.469911,-0.12126 0.280431,-0.036 0.581705,-0.0531 v -0.0114 q 0,-0.17621 -0.144005,-0.24253 -0.144005,-0.0682 -0.424436,-0.0682 -0.168638,0 -0.360013,0.0606 -0.191375,0.0587 -0.274747,0.0909 h -0.06253 v -0.51349 q 0.108004,-0.0284 0.350539,-0.0663 0.244429,-0.0398 0.488859,-0.0398 0.581705,0 0.839399,0.18001 0.259588,0.17811 0.259588,0.56086 v 1.44763 h -0.676443 z m 3.384121,-1.28279 v 1.50827 h -0.685919 v -1.06299 q 0,-0.15537 -0.0076,-0.26337 -0.0076,-0.1099 -0.04169,-0.17812 -0.03411,-0.0682 -0.104214,-0.0985 -0.06821,-0.0322 -0.19327,-0.0322 -0.100425,0 -0.195165,0.0417 -0.09474,0.0398 -0.170533,0.0853 v 1.50827 H 17.5093 v -2.12787 h 0.682129 v 0.23496 q 0.176217,-0.13832 0.337275,-0.21601 0.161059,-0.0777 0.356224,-0.0777 0.210323,0 0.371381,0.0947 0.161059,0.0928 0.252009,0.27475 0.204639,-0.17243 0.397909,-0.27096 0.19327,-0.0985 0.378961,-0.0985 0.344855,0 0.522966,0.20654 0.180007,0.20653 0.180007,0.59497 v 1.3851 h -0.685919 v -1.06299 q 0,-0.15727 -0.0076,-0.26527 -0.0057,-0.108 -0.03979,-0.17622 -0.03221,-0.0682 -0.102319,-0.0985 -0.07011,-0.0322 -0.19706,-0.0322 -0.08527,0 -0.166742,0.0303 -0.08148,0.0284 -0.198955,0.0966 z m 4.090884,1.50827 h -1.883436 v -0.49265 h 0.594968 v -1.49121 h -0.594968 v -0.46044 q 0.136426,0 0.261483,-0.0152 0.125057,-0.0171 0.208428,-0.0568 0.09853,-0.0474 0.147795,-0.12316 0.04926,-0.0758 0.05684,-0.18948 h 0.62718 v 2.33629 H 23.6807 Z"
       id="text3-5-0"
       style="font-weight:bold;font-size:3.88056px;-inkscape-font-specification:'sans-serif Bold';stroke-width:0.264583"
       aria-label="param1" /><path
       d="m 13.766845,218.68087 q -0.253214,0 -0.463365,-0.0603 -0.208429,-0.0603 -0.363458,-0.18603 -0.153307,-0.12575 -0.237712,-0.31695 -0.08441,-0.1912 -0.08441,-0.44786 0,-0.27044 0.08957,-0.46681 0.0913,-0.19637 0.253215,-0.32557 0.156751,-0.1223 0.361735,-0.17914 0.204983,-0.0568 0.425469,-0.0568 0.198093,0 0.365181,0.0431 0.167087,0.0431 0.311781,0.11196 v 0.52883 h -0.08785 q -0.03617,-0.031 -0.08785,-0.0724 -0.04995,-0.0413 -0.124023,-0.081 -0.07062,-0.0379 -0.15503,-0.062 -0.08441,-0.0258 -0.19637,-0.0258 -0.248047,0 -0.382406,0.15847 -0.132637,0.15676 -0.132637,0.4272 0,0.27905 0.136082,0.42374 0.137804,0.1447 0.389296,0.1447 0.117133,0 0.210151,-0.0258 0.09474,-0.0276 0.156752,-0.0637 0.05857,-0.0345 0.103353,-0.0724 0.04479,-0.0379 0.08268,-0.0741 h 0.08785 v 0.52882 q -0.146417,0.0689 -0.306614,0.10852 -0.158474,0.0413 -0.3514,0.0413 z m 3.016183,-1.9861 -0.745863,1.93443 h -0.7028 l -0.740696,-1.93443 h 0.656291 l 0.447863,1.32981 0.442695,-1.32981 z m 2.222088,1.93443 h -1.712213 v -0.44787 h 0.54088 v -1.35564 h -0.54088 v -0.41858 q 0.124023,0 0.237712,-0.0138 0.113688,-0.0155 0.18948,-0.0517 0.08957,-0.0431 0.134359,-0.11196 0.04479,-0.0689 0.05168,-0.17226 h 0.570164 v 2.1239 h 0.528822 z"
       id="text3-5"
       style="font-weight:bold;font-size:3.52778px;-inkscape-font-specification:'sans-serif Bold';stroke-width:0.264583"
       aria-label="cv1" /><path
       d="M 3.8492655,173.34913 H 2.1973418 v 0.668 h 1.5313453 v 0.69453 H 2.1973418 v 1.53376 H 1.2761231 v -3.59083 h 2.5731424 z m 2.2306998,2.1897 v -0.56431 q -0.1760444,0.0145 -0.3810276,0.041 -0.2049832,0.0241 -0.3110922,0.0579 -0.1302246,0.041 -0.2001601,0.12057 -0.067524,0.0772 -0.067524,0.20499 0,0.0844 0.014469,0.13746 0.014469,0.0531 0.072347,0.10128 0.055466,0.0482 0.1326363,0.0724 0.07717,0.0217 0.2411567,0.0217 0.1302246,0 0.2628608,-0.0531 0.1350478,-0.0531 0.2363336,-0.13987 z m 0,0.41961 q -0.069935,0.0531 -0.1736328,0.12781 -0.1036974,0.0748 -0.195337,0.11817 -0.127813,0.0579 -0.2652724,0.0844 -0.1374593,0.0289 -0.3014459,0.0289 -0.3858508,0 -0.6463001,-0.23874 -0.2604492,-0.23875 -0.2604492,-0.61013 0,-0.29662 0.1326362,-0.48472 0.1326362,-0.1881 0.3762045,-0.29662 0.2411567,-0.10853 0.5980687,-0.15435 0.356912,-0.0458 0.7403512,-0.0675 v -0.0145 q 0,-0.22427 -0.1832791,-0.30868 -0.1832792,-0.0868 -0.5401911,-0.0868 -0.2146295,0 -0.4581978,0.0772 -0.2435683,0.0748 -0.3496773,0.11576 h -0.079582 v -0.65353 q 0.1374593,-0.0362 0.4461399,-0.0844 0.3110922,-0.0506 0.6221844,-0.0506 0.7403512,0 1.0683244,0.2291 0.3303847,0.22668 0.3303847,0.71382 v 1.84244 H 6.0799653 Z m 4.5337467,0.28698 H 9.6032652 l -0.7596437,-1.17926 -0.2363336,0.28698 v 0.89228 H 7.7391236 v -3.7524 h 0.8681643 v 2.24034 l 0.9356881,-1.19613 h 1.0008 l -0.9742727,1.1672 z m 3.106098,-1.19373 h -1.987131 q 0.01929,0.31833 0.241157,0.48714 0.224275,0.16881 0.658358,0.16881 0.274918,0 0.532956,-0.0989 0.258038,-0.0989 0.407555,-0.21221 h 0.09646 v 0.69694 q -0.294211,0.11817 -0.55466,0.17122 -0.260449,0.0531 -0.576365,0.0531 -0.815109,0 -1.249192,-0.36655 -0.434082,-0.36656 -0.434082,-1.04421 0,-0.67042 0.409967,-1.06109 0.412378,-0.39309 1.128613,-0.39309 0.66077,0 0.993566,0.33521 0.332796,0.3328 0.332796,0.9598 z m -0.863341,-0.50884 q -0.0072,-0.27251 -0.135047,-0.40997 -0.127814,-0.13745 -0.397909,-0.13745 -0.250803,0 -0.412378,0.13022 -0.161575,0.13022 -0.180868,0.4172 z m 4.917186,-0.0892 q 0,0.50161 -0.229099,0.89952 -0.229099,0.39549 -0.578776,0.60771 -0.262861,0.15917 -0.576364,0.22187 -0.313504,0.0627 -0.742763,0.0627 H 14.38058 v -3.59083 h 1.302246 q 0.438906,0 0.757233,0.0748 0.318326,0.0724 0.535367,0.2074 0.371382,0.22668 0.5836,0.61254 0.214629,0.38343 0.214629,0.90433 z m -0.957392,-0.007 q 0,-0.3545 -0.130225,-0.60531 -0.127813,-0.25321 -0.407555,-0.39549 -0.142282,-0.0699 -0.291799,-0.094 -0.147106,-0.0265 -0.44614,-0.0265 h -0.233922 v 2.24758 h 0.233922 q 0.330385,0 0.484725,-0.0289 0.15434,-0.0314 0.301446,-0.11093 0.253214,-0.14469 0.371381,-0.38585 0.118167,-0.24357 0.118167,-0.60048 z m 3.255615,1.09244 v -0.56431 q -0.176044,0.0145 -0.381027,0.041 -0.204984,0.0241 -0.311093,0.0579 -0.130224,0.041 -0.20016,0.12057 -0.06752,0.0772 -0.06752,0.20499 0,0.0844 0.01447,0.13746 0.01447,0.0531 0.07235,0.10128 0.05547,0.0482 0.132636,0.0724 0.07717,0.0217 0.241157,0.0217 0.130224,0 0.262861,-0.0531 0.135047,-0.0531 0.236333,-0.13987 z m 0,0.41961 q -0.06994,0.0531 -0.173633,0.12781 -0.103697,0.0748 -0.195337,0.11817 -0.127813,0.0579 -0.265272,0.0844 -0.137459,0.0289 -0.301446,0.0289 -0.385851,0 -0.6463,-0.23874 -0.260449,-0.23875 -0.260449,-0.61013 0,-0.29662 0.132636,-0.48472 0.132636,-0.1881 0.376204,-0.29662 0.241157,-0.10853 0.598069,-0.15435 0.356912,-0.0458 0.740351,-0.0675 v -0.0145 q 0,-0.22427 -0.183279,-0.30868 -0.183279,-0.0868 -0.540191,-0.0868 -0.214629,0 -0.458198,0.0772 -0.243568,0.0748 -0.349677,0.11576 h -0.07958 v -0.65353 q 0.13746,-0.0362 0.44614,-0.0844 0.311092,-0.0506 0.622185,-0.0506 0.740351,0 1.068324,0.2291 0.330385,0.22668 0.330385,0.71382 v 1.84244 h -0.86093 z m 2.527323,0.28698 h -0.868164 v -2.70819 h 0.868164 z m 0.02412,-3.09404 h -0.916396 v -0.65836 h 0.916396 z m 3.149507,2.23552 q 0,0.41961 -0.376205,0.67765 -0.376204,0.25563 -1.029739,0.25563 -0.361735,0 -0.655946,-0.0675 -0.294212,-0.0675 -0.472668,-0.14951 v -0.71383 h 0.07958 q 0.06511,0.0458 0.149517,0.10129 0.08682,0.053 0.243569,0.11575 0.135047,0.0555 0.306269,0.0965 0.171221,0.0386 0.366558,0.0386 0.255626,0 0.378616,-0.0555 0.12299,-0.0579 0.12299,-0.16881 0,-0.0989 -0.07235,-0.14228 -0.07235,-0.0458 -0.274919,-0.0868 -0.09646,-0.0217 -0.262861,-0.0458 -0.163986,-0.0265 -0.299034,-0.0627 -0.36897,-0.0965 -0.547426,-0.29903 -0.178456,-0.20498 -0.178456,-0.50884 0,-0.39067 0.36897,-0.64871 0.371381,-0.26045 1.012858,-0.26045 0.303858,0 0.581188,0.0627 0.279742,0.0603 0.436494,0.13022 v 0.68489 h -0.07476 q -0.192925,-0.13264 -0.441317,-0.21463 -0.24598,-0.0844 -0.499194,-0.0844 -0.209806,0 -0.354501,0.0579 -0.142282,0.0579 -0.142282,0.16399 0,0.0965 0.06511,0.1471 0.06511,0.0506 0.306269,0.10129 0.132637,0.0265 0.284565,0.0531 0.154341,0.0241 0.308681,0.0627 0.342443,0.0892 0.506429,0.28215 0.163987,0.19051 0.163987,0.47749 z m 1.79903,-0.0989 0.617361,-1.7508 h 0.89228 l -1.504818,3.70175 H 26.63617 l 0.429259,-1.01285 -1.053855,-2.6889 h 0.911573 z"
       id="text2"
       style="font-weight:bold;font-size:4.93889px;-inkscape-font-specification:'sans-serif Bold';stroke-width:0.264583"
       aria-label="FakeDaisy" /><path
       d="M 6.595417,185.59449 H 5.9132873 v -2.12787 H 6.595417 Z m 0.018948,-2.43104 H 5.8943393 v -0.51728 h 0.7200258 z m 2.7626251,2.43104 H 8.6910709 v -1.05541 q 0,-0.12884 -0.013264,-0.2558 -0.013264,-0.12884 -0.045475,-0.18948 -0.037896,-0.0701 -0.1117935,-0.10232 -0.072003,-0.0322 -0.2027441,-0.0322 -0.092845,0 -0.1894805,0.0303 -0.09474,0.0303 -0.2065337,0.0966 v 1.50827 H 7.2396506 v -2.12787 h 0.6821296 v 0.23496 q 0.1819013,-0.14211 0.3486441,-0.2179 0.1686376,-0.0758 0.3732765,-0.0758 0.3448544,0 0.5381245,0.20085 0.1951649,0.20085 0.1951649,0.60066 z"
       id="text3"
       style="font-weight:bold;font-size:3.88056px;-inkscape-font-specification:'sans-serif Bold';stroke-width:0.264583"
       aria-label="in" /><path
       d="m 21.081808,287.08985 q 0,0.52486 -0.306958,0.82803 -0.305064,0.30127 -0.858347,0.30127 -0.553283,0 -0.860241,-0.30127 -0.305064,-0.30317 -0.305064,-0.82803 0,-0.52865 0.306959,-0.82993 0.308853,-0.30127 0.858346,-0.30127 0.557073,0 0.860242,0.30317 0.305063,0.30317 0.305063,0.82803 z m -0.839398,0.51728 q 0.06632,-0.0815 0.09853,-0.19517 0.03411,-0.11558 0.03411,-0.31832 0,-0.18759 -0.03411,-0.31454 -0.03411,-0.12695 -0.09474,-0.20275 -0.06063,-0.0777 -0.1459,-0.10989 -0.08527,-0.0322 -0.183796,-0.0322 -0.09853,0 -0.176216,0.0265 -0.07579,0.0265 -0.1459,0.10611 -0.06253,0.0739 -0.100425,0.20274 -0.036,0.12885 -0.036,0.32402 0,0.17432 0.03221,0.30316 0.03221,0.12696 0.09474,0.20464 0.06063,0.0739 0.144005,0.10801 0.08527,0.0341 0.19327,0.0341 0.09285,0 0.176217,-0.0303 0.08527,-0.0322 0.144005,-0.10611 z m 3.448544,0.5457 h -0.682129 v -0.23495 q -0.189481,0.144 -0.34675,0.21979 -0.157268,0.0739 -0.375171,0.0739 -0.352434,0 -0.543809,-0.20274 -0.18948,-0.20275 -0.18948,-0.59876 v -1.3851 h 0.685919 v 1.0554 q 0,0.16106 0.0095,0.26906 0.01137,0.10611 0.04926,0.17622 0.036,0.0701 0.108004,0.10232 0.0739,0.0322 0.204639,0.0322 0.08716,0 0.19327,-0.0322 0.106109,-0.0322 0.204639,-0.0947 v -1.50826 h 0.682129 z m 2.004704,-0.019 q -0.109899,0.0284 -0.233061,0.0436 -0.123163,0.0171 -0.301274,0.0171 -0.397909,0 -0.593074,-0.16106 -0.19327,-0.16106 -0.19327,-0.55139 v -0.99477 h -0.280431 v -0.46233 h 0.280431 v -0.60824 h 0.68213 v 0.60824 h 0.638549 v 0.46233 h -0.638549 v 0.75413 q 0,0.11179 0.0019,0.19517 0.0019,0.0834 0.03032,0.14969 0.02653,0.0663 0.09285,0.1061 0.06821,0.0379 0.197059,0.0379 0.05306,0 0.138321,-0.0227 0.08716,-0.0227 0.121268,-0.0417 h 0.05684 z"
       id="text3-9"
       style="font-weight:bold;font-size:3.88056px;-inkscape-font-specification:'sans-serif Bold';opacity:1;mix-blend-mode:lighten;fill:#ffffff;stroke-width:0.264583"
       aria-label="out"
       inkscape:label="out" /><path
       d="m 13.321555,249.35684 q -0.253215,0 -0.463366,-0.0603 -0.208428,-0.0603 -0.363458,-0.18604 -0.153306,-0.12574 -0.237711,-0.31695 -0.08441,-0.1912 -0.08441,-0.44786 0,-0.27044 0.08957,-0.46681 0.09129,-0.19637 0.253215,-0.32556 0.156752,-0.1223 0.361735,-0.17915 0.204984,-0.0568 0.42547,-0.0568 0.198093,0 0.36518,0.0431 0.167087,0.0431 0.311781,0.11197 v 0.52882 h -0.08785 q -0.03617,-0.031 -0.08785,-0.0724 -0.04995,-0.0413 -0.124023,-0.081 -0.07062,-0.0379 -0.155029,-0.062 -0.08441,-0.0258 -0.196371,-0.0258 -0.248047,0 -0.382406,0.15848 -0.132636,0.15675 -0.132636,0.42719 0,0.27905 0.136081,0.42375 0.137804,0.14469 0.389296,0.14469 0.117134,0 0.210151,-0.0258 0.09474,-0.0276 0.156752,-0.0637 0.05857,-0.0344 0.103353,-0.0724 0.04479,-0.0379 0.08268,-0.0741 h 0.08785 v 0.52883 q -0.146416,0.0689 -0.306613,0.10852 -0.158475,0.0413 -0.3514,0.0413 z m 3.016183,-1.9861 -0.745864,1.93442 h -0.7028 l -0.740696,-1.93442 h 0.656291 l 0.447863,1.32981 0.442695,-1.32981 z m 2.384007,1.93442 h -2.013659 v -0.42375 q 0.230821,-0.16708 0.461643,-0.35484 0.232544,-0.18776 0.37207,-0.32384 0.208429,-0.20154 0.296279,-0.3514 0.08785,-0.14986 0.08785,-0.29628 0,-0.1757 -0.113688,-0.27044 -0.111966,-0.0965 -0.32384,-0.0965 -0.158474,0 -0.334174,0.0654 -0.173977,0.0655 -0.323839,0.16709 h -0.05512 v -0.57016 q 0.122301,-0.0534 0.360013,-0.1068 0.239434,-0.0534 0.478869,-0.0534 0.482313,0 0.735528,0.20326 0.253215,0.20154 0.253215,0.57189 0,0.24288 -0.122301,0.46164 -0.120579,0.21877 -0.370348,0.45131 -0.156752,0.14469 -0.315227,0.26699 -0.158474,0.12058 -0.225654,0.16881 h 1.152385 z"
       id="text4"
       style="font-weight:bold;font-size:3.52778px;-inkscape-font-specification:'sans-serif Bold';stroke-width:0.264583"
       inkscape:label="text4"
       aria-label="cv2" /><path
       d="m 9.9035793,229.92251 q 0,0.26337 -0.08148,0.47938 -0.07958,0.21601 -0.210323,0.35622 -0.136426,0.1478 -0.3088537,0.22359 -0.172427,0.0758 -0.3694857,0.0758 -0.181902,0 -0.308854,-0.0398 -0.126951,-0.0379 -0.2595878,-0.108 v 0.88677 H 7.6828684 v -2.90853 h 0.6821297 v 0.22169 q 0.1572688,-0.12505 0.3202218,-0.20274 0.164848,-0.0777 0.3789607,-0.0777 0.397909,0 0.6177057,0.2918 0.221693,0.2918 0.221693,0.80151 z m -0.7029727,0.0133 q 0,-0.31075 -0.106109,-0.45096 -0.106109,-0.14022 -0.3353797,-0.14022 -0.09663,0 -0.198955,0.0303 -0.102319,0.0284 -0.1951648,0.0834 v 1.07056 q 0.068213,0.0265 0.1458998,0.0341 0.07769,0.008 0.153479,0.008 0.270957,0 0.4035937,-0.15727 0.132636,-0.15916 0.132636,-0.47749 z m 2.4840884,0.52486 v -0.44338 q -0.138321,0.0114 -0.299379,0.0322 -0.161059,0.0189 -0.24443,0.0455 -0.102319,0.0322 -0.157269,0.0947 -0.05305,0.0606 -0.05305,0.16106 0,0.0663 0.01137,0.10801 0.01137,0.0417 0.05684,0.0796 0.04358,0.0379 0.104214,0.0568 0.06063,0.0171 0.18948,0.0171 0.10232,0 0.206534,-0.0417 0.106109,-0.0417 0.185691,-0.1099 z m 0,0.3297 q -0.05495,0.0417 -0.136426,0.10042 -0.08148,0.0587 -0.153479,0.0928 -0.100425,0.0455 -0.208429,0.0663 -0.108004,0.0227 -0.23685,0.0227 -0.303169,0 -0.507808,-0.18758 -0.204639,-0.18759 -0.204639,-0.47939 0,-0.23306 0.104214,-0.38085 0.104215,-0.1478 0.29559,-0.23307 0.18948,-0.0853 0.469912,-0.12126 0.280431,-0.036 0.581705,-0.0531 v -0.0114 q 0,-0.17621 -0.144006,-0.24253 -0.144005,-0.0682 -0.424436,-0.0682 -0.168637,0 -0.360013,0.0606 -0.191375,0.0587 -0.274746,0.0909 h -0.06253 v -0.51349 q 0.108004,-0.0284 0.350539,-0.0663 0.24443,-0.0398 0.48886,-0.0398 0.581705,0 0.839398,0.18001 0.259588,0.17811 0.259588,0.56086 v 1.44763 h -0.676445 z m 2.845997,-1.25247 h -0.06063 q -0.04358,-0.0152 -0.140215,-0.0227 -0.09664,-0.008 -0.161059,-0.008 -0.1459,0 -0.257693,0.0189 -0.111794,0.019 -0.240641,0.0644 v 1.42489 h -0.682129 v -2.12787 h 0.682129 v 0.31265 q 0.225482,-0.19327 0.392225,-0.2558 0.166743,-0.0644 0.306958,-0.0644 0.036,0 0.08148,0.002 0.04547,0.002 0.07958,0.006 z m 1.675007,0.92277 v -0.44338 q -0.138321,0.0114 -0.299379,0.0322 -0.161059,0.0189 -0.24443,0.0455 -0.10232,0.0322 -0.157269,0.0947 -0.05306,0.0606 -0.05306,0.16106 0,0.0663 0.01137,0.10801 0.01137,0.0417 0.05684,0.0796 0.04358,0.0379 0.104215,0.0568 0.06063,0.0171 0.18948,0.0171 0.10232,0 0.206534,-0.0417 0.106109,-0.0417 0.185691,-0.1099 z m 0,0.3297 q -0.05495,0.0417 -0.136426,0.10042 -0.08148,0.0587 -0.153479,0.0928 -0.100425,0.0455 -0.208429,0.0663 -0.108004,0.0227 -0.23685,0.0227 -0.303169,0 -0.507808,-0.18758 -0.204639,-0.18759 -0.204639,-0.47939 0,-0.23306 0.104214,-0.38085 0.104214,-0.1478 0.29559,-0.23307 0.18948,-0.0853 0.469911,-0.12126 0.280431,-0.036 0.581705,-0.0531 v -0.0114 q 0,-0.17621 -0.144005,-0.24253 -0.144005,-0.0682 -0.424436,-0.0682 -0.168638,0 -0.360013,0.0606 -0.191375,0.0587 -0.274747,0.0909 h -0.06253 v -0.51349 q 0.108004,-0.0284 0.350539,-0.0663 0.244429,-0.0398 0.488859,-0.0398 0.581705,0 0.839399,0.18001 0.259588,0.17811 0.259588,0.56086 v 1.44763 h -0.676443 z m 3.384121,-1.28279 v 1.50827 h -0.685919 v -1.06299 q 0,-0.15537 -0.0076,-0.26338 -0.0076,-0.10989 -0.04169,-0.17811 -0.03411,-0.0682 -0.104214,-0.0985 -0.06821,-0.0322 -0.19327,-0.0322 -0.100425,0 -0.195165,0.0417 -0.09474,0.0398 -0.170533,0.0853 v 1.50827 H 17.5093 v -2.12787 h 0.682129 v 0.23496 q 0.176217,-0.13832 0.337275,-0.21601 0.161059,-0.0777 0.356224,-0.0777 0.210323,0 0.371381,0.0947 0.161059,0.0928 0.252009,0.27475 0.204639,-0.17243 0.397909,-0.27096 0.19327,-0.0985 0.378961,-0.0985 0.344855,0 0.522966,0.20654 0.180007,0.20653 0.180007,0.59497 v 1.3851 h -0.685919 v -1.06299 q 0,-0.15727 -0.0076,-0.26527 -0.0057,-0.108 -0.03979,-0.17622 -0.03221,-0.0682 -0.102319,-0.0985 -0.07011,-0.0322 -0.19706,-0.0322 -0.08527,0 -0.166742,0.0303 -0.08148,0.0284 -0.198955,0.0966 z m 4.268995,1.50827 h -2.215026 v -0.46612 q 0.253903,-0.1838 0.507807,-0.39033 0.255799,-0.20654 0.409278,-0.35623 0.229271,-0.22169 0.325906,-0.38654 0.09663,-0.16485 0.09663,-0.3259 0,-0.19327 -0.125057,-0.29749 -0.123162,-0.10611 -0.356223,-0.10611 -0.174322,0 -0.367592,0.072 -0.191375,0.072 -0.356223,0.18379 h -0.06063 v -0.62718 q 0.134531,-0.0587 0.396014,-0.11748 0.263378,-0.0587 0.526756,-0.0587 0.530545,0 0.809081,0.22359 0.278537,0.22169 0.278537,0.62908 0,0.26716 -0.134531,0.5078 -0.132637,0.24064 -0.407383,0.49644 -0.172428,0.15917 -0.34675,0.2937 -0.174322,0.13263 -0.248219,0.18569 h 1.267624 z"
       id="text5"
       style="font-weight:bold;font-size:3.88056px;-inkscape-font-specification:'sans-serif Bold';stroke-width:0.264583"
       inkscape:label="text5"
       aria-label="param2" /></g><g
     inkscape:groupmode="layer"
     id="layer2"
     inkscape:label="components"
     style="display:inline"><circle
       r="4"
       cy="48.821289"
       cx="24.037413"
       id="circle4956-6"
       style="display:inline;vector-effect:none;fill:#00ff00;fill-opacity:1;fill-rule:evenodd;stroke:none;stroke-width:1;stroke-linecap:butt;stroke-linejoin:miter;stroke-miterlimit:4;stroke-dasharray:none;stroke-dashoffset:0;stroke-opacity:1;paint-order:normal"
       inkscape:label="cv1" /><circle
       style="display:inline;vector-effect:none;fill:#0000ff;fill-opacity:1;fill-rule:evenodd;stroke:none;stroke-width:1;stroke-linecap:butt;stroke-linejoin:miter;stroke-miterlimit:4;stroke-dasharray:none;stroke-dashoffset:0;stroke-opacity:1;paint-order:normal"
       id="circle4958"
       cx="14.612315"
       cy="113.55661"
       r="4"
       inkscape:label="out" /><circle
       r="4"
       cy="19.115835"
       cx="14.878585"
       id="circle4956"
       style="display:inline;opacity:1;vector-effect:none;fill:#00ff00;fill-opacity:1;fill-rule:evenodd;stroke:none;stroke-width:1;stroke-linecap:butt;stroke-linejoin:miter;stroke-miterlimit:4;stroke-dasharray:none;stroke-dashoffset:0;stroke-opacity:1;paint-order:normal"
       inkscape:label="in" /><circle
       inkscape:label="led2"
       r="4"
       cy="70.53566"
       cx="6.3341899"
       id="circle66"
       style="display:inline;opacity:1;vector-effect:none;fill:#ff00ff;fill-opacity:1;fill-rule:evenodd;stroke:none;stroke-width:1;stroke-linecap:butt;stroke-linejoin:miter;stroke-miterlimit:4;stroke-dasharray:none;stroke-dashoffset:0;stroke-opacity:1;paint-order:normal" /><circle
       style="display:inline;opacity:1;vector-effect:none;fill:#ff0000;fill-opacity:1;fill-rule:evenodd;stroke:none;stroke-width:1;stroke-linecap:butt;stroke-linejoin:miter;stroke-miterlimit:4;stroke-dasharray:none;stroke-dashoffset:0;stroke-opacity:1;paint-order:normal"
       id="path4954"
       cx="15.24"
       cy="39.18409"
       r="4"
       inkscape:label="param1" /><circle
       inkscape:label="led1"
       r="4"
       cy="39.277805"
       cx="6.3365703"
       id="circle2"
       style="display:inline;opacity:1;vector-effect:none;fill:#ff00ff;fill-opacity:1;fill-rule:evenodd;stroke:none;stroke-width:1;stroke-linecap:butt;stroke-linejoin:miter;stroke-miterlimit:4;stroke-dasharray:none;stroke-dashoffset:0;stroke-opacity:1;paint-order:normal" /><circle
       style="display:inline;opacity:1;vector-effect:none;fill:#ff0000;fill-opacity:1;fill-rule:evenodd;stroke:none;stroke-width:1;stroke-linecap:butt;stroke-linejoin:miter;stroke-miterlimit:4;stroke-dasharray:none;stroke-dashoffset:0;stroke-opacity:1;paint-order:normal"
       id="circle4"
       cx="15.019735"
       cy="70.580582"
       r="4"
       inkscape:label="param2" /><circle
       r="4"
       cy="79.816429"
       cx="23.814768"
       id="circle3"
       style="display:inline;vector-effect:none;fill:#00ff00;fill-opacity:1;fill-rule:evenodd;stroke:none;stroke-width:1;stroke-linecap:butt;stroke-linejoin:miter;stroke-miterlimit:4;stroke-dasharray:none;stroke-dashoffset:0;stroke-opacity:1;paint-order:normal"
       inkscape:label="cv2" /><circle
       r="4"
       cy="93.05101"
       cx="14.991713"
       id="circle5"
       style="display:inline;vector-effect:none;fill:#ffff00;fill-opacity:1;fill-rule:evenodd;stroke:none;stroke-width:1;stroke-linecap:butt;stroke-linejoin:miter;stroke-miterlimit:4;stroke-dasharray:none;stroke-dashoffset:0;stroke-opacity:1;paint-order:normal"
       inkscape:label="switch" /></g></svg>
